<svg width="555" height="412" viewBox="0 0 555 412" fill="none" xmlns="http://www.w3.org/2000/svg">
<rect width="555" height="412" fill="white"/>
<path d="M86 110C86 102.268 92.268 96 100 96H499C506.732 96 513 102.268 513 110V353C513 360.732 506.732 367 499 367H100C92.268 367 86 360.732 86 353V110Z" fill="#F6F6F6"/>
<path d="M86 110C86 102.268 92.268 96 100 96H499C506.732 96 513 102.268 513 110V129H86V110Z" fill="#C2C7CE"/>
<path d="M41 65C41 57.268 47.268 51 55 51H454C461.732 51 468 57.268 468 65V308C468 315.732 461.732 322 454 322H55C47.268 322 41 315.732 41 308V65Z" fill="#EDF1FC"/>
<rect x="201" y="100" width="127" height="87" rx="9" fill="#E2E6F4"/>
<rect x="62" y="100" width="127" height="87" rx="9" fill="#E2E6F4"/>
<path d="M247 128.741C247 126.629 248.711 124.917 250.824 124.917H277.676C279.788 124.917 281.5 126.628 281.5 128.741V155.593C281.5 157.705 279.789 159.417 277.676 159.417H250.824C248.712 159.417 247 157.706 247 155.593V128.741ZM250.833 128.75V155.583H277.667V128.75H250.833ZM256.53 154.013C255.344 153.5 254.22 152.87 253.173 152.138C255.563 148.444 259.719 146 264.446 146C269.045 146 273.103 148.314 275.52 151.84C274.492 152.6 273.386 153.26 272.215 153.804C270.474 151.399 267.642 149.833 264.446 149.833C261.157 149.833 258.256 151.49 256.53 154.013ZM264.25 144.083C260.545 144.083 257.542 141.08 257.542 137.375C257.542 133.67 260.545 130.667 264.25 130.667C267.955 130.667 270.958 133.67 270.958 137.375C270.958 141.08 267.955 144.083 264.25 144.083ZM264.25 140.25C265.838 140.25 267.125 138.963 267.125 137.375C267.125 135.787 265.838 134.5 264.25 134.5C262.662 134.5 261.375 135.787 261.375 137.375C261.375 138.963 262.662 140.25 264.25 140.25Z" fill="white"/>
<path d="M105 123V128.75H108.833V126.833H112.667V136.417H109.792V140.25H119.375V136.417H116.5V126.833H120.333V128.75H124.167V123H105ZM143.333 124.917H129.917V128.75H141.417V155.583H110.75V146H106.917V157.5C106.917 158.559 107.775 159.417 108.833 159.417H143.333C144.392 159.417 145.25 158.559 145.25 157.5V126.833C145.25 125.775 144.392 124.917 143.333 124.917Z" fill="white"/>
<path d="M41 65C41 57.268 47.268 51 55 51H454C461.732 51 468 57.268 468 65V84H41V65Z" fill="#6F7E94"/>
<path d="M214.881 71V63.7273H215.719V66.4119H215.79C215.851 66.3172 215.937 66.1965 216.045 66.0497C216.157 65.9006 216.315 65.768 216.521 65.652C216.73 65.5336 217.011 65.4744 217.366 65.4744C217.826 65.4744 218.231 65.5893 218.581 65.8189C218.931 66.0485 219.205 66.3741 219.401 66.7955C219.598 67.2169 219.696 67.714 219.696 68.2869C219.696 68.8646 219.598 69.3653 219.401 69.7891C219.205 70.2105 218.933 70.5372 218.585 70.7692C218.237 70.9988 217.835 71.1136 217.381 71.1136C217.03 71.1136 216.75 71.0556 216.539 70.9396C216.328 70.8213 216.166 70.6875 216.053 70.5384C215.939 70.3868 215.851 70.2614 215.79 70.1619H215.69V71H214.881ZM215.705 68.2727C215.705 68.6847 215.765 69.0481 215.886 69.3629C216.006 69.6754 216.183 69.9205 216.415 70.098C216.647 70.2732 216.931 70.3608 217.267 70.3608C217.617 70.3608 217.91 70.2685 218.144 70.0838C218.381 69.8968 218.558 69.6458 218.677 69.331C218.798 69.0137 218.858 68.661 218.858 68.2727C218.858 67.8892 218.799 67.5436 218.68 67.2358C218.564 66.9257 218.388 66.6806 218.151 66.5007C217.917 66.3184 217.622 66.2273 217.267 66.2273C216.926 66.2273 216.64 66.3137 216.408 66.4865C216.176 66.657 216 66.8961 215.882 67.2038C215.764 67.5092 215.705 67.8655 215.705 68.2727ZM223.265 71.1136C222.739 71.1136 222.286 70.9976 221.905 70.7656C221.526 70.5312 221.234 70.2045 221.028 69.7855C220.824 69.3641 220.722 68.8741 220.722 68.3153C220.722 67.7566 220.824 67.2642 221.028 66.8381C221.234 66.4096 221.52 66.0758 221.887 65.8366C222.256 65.5952 222.687 65.4744 223.18 65.4744C223.464 65.4744 223.744 65.5218 224.021 65.6165C224.298 65.7112 224.55 65.8651 224.778 66.0781C225.005 66.2888 225.186 66.5682 225.321 66.9162C225.456 67.2642 225.523 67.6927 225.523 68.2017V68.5568H221.319V67.8324H224.671C224.671 67.5246 224.61 67.25 224.487 67.0085C224.366 66.767 224.193 66.5765 223.968 66.4368C223.746 66.2971 223.483 66.2273 223.18 66.2273C222.846 66.2273 222.557 66.3101 222.313 66.4759C222.072 66.6392 221.886 66.8523 221.756 67.1151C221.625 67.3778 221.56 67.6596 221.56 67.9602V68.4432C221.56 68.8551 221.631 69.2043 221.773 69.4908C221.918 69.7749 222.118 69.9915 222.374 70.1406C222.629 70.2874 222.926 70.3608 223.265 70.3608C223.485 70.3608 223.684 70.33 223.862 70.2685C224.041 70.2045 224.196 70.1098 224.327 69.9844C224.457 69.8565 224.558 69.6979 224.629 69.5085L225.438 69.7358C225.353 70.0104 225.21 70.2519 225.009 70.4602C224.807 70.6662 224.559 70.8272 224.263 70.9432C223.967 71.0568 223.634 71.1136 223.265 71.1136ZM228.858 71.1136C228.403 71.1136 228.002 70.9988 227.654 70.7692C227.306 70.5372 227.034 70.2105 226.837 69.7891C226.641 69.3653 226.543 68.8646 226.543 68.2869C226.543 67.714 226.641 67.2169 226.837 66.7955C227.034 66.3741 227.307 66.0485 227.658 65.8189C228.008 65.5893 228.413 65.4744 228.872 65.4744C229.227 65.4744 229.508 65.5336 229.714 65.652C229.922 65.768 230.081 65.9006 230.19 66.0497C230.301 66.1965 230.387 66.3172 230.449 66.4119H230.52V63.7273H231.358V71H230.548V70.1619H230.449C230.387 70.2614 230.3 70.3868 230.186 70.5384C230.072 70.6875 229.91 70.8213 229.7 70.9396C229.489 71.0556 229.208 71.1136 228.858 71.1136ZM228.972 70.3608C229.308 70.3608 229.592 70.2732 229.824 70.098C230.056 69.9205 230.232 69.6754 230.353 69.3629C230.474 69.0481 230.534 68.6847 230.534 68.2727C230.534 67.8655 230.475 67.5092 230.357 67.2038C230.238 66.8961 230.063 66.657 229.831 66.4865C229.599 66.3137 229.313 66.2273 228.972 66.2273C228.616 66.2273 228.321 66.3184 228.084 66.5007C227.849 66.6806 227.673 66.9257 227.555 67.2358C227.439 67.5436 227.381 67.8892 227.381 68.2727C227.381 68.661 227.44 69.0137 227.558 69.331C227.679 69.6458 227.857 69.8968 228.091 70.0838C228.328 70.2685 228.621 70.3608 228.972 70.3608ZM233.847 63.7273V71H233.009V63.7273H233.847ZM235.382 71V65.5455H236.22V71H235.382ZM235.808 64.6364C235.645 64.6364 235.504 64.5807 235.386 64.4695C235.27 64.3582 235.212 64.2244 235.212 64.0682C235.212 63.9119 235.27 63.7782 235.386 63.6669C235.504 63.5556 235.645 63.5 235.808 63.5C235.972 63.5 236.111 63.5556 236.227 63.6669C236.346 63.7782 236.405 63.9119 236.405 64.0682C236.405 64.2244 236.346 64.3582 236.227 64.4695C236.111 64.5807 235.972 64.6364 235.808 64.6364ZM238.593 67.7188V71H237.755V65.5455H238.565V66.3977H238.636C238.764 66.1207 238.958 65.8982 239.218 65.7301C239.479 65.5597 239.815 65.4744 240.227 65.4744C240.596 65.4744 240.919 65.5502 241.196 65.7017C241.473 65.8509 241.689 66.0781 241.843 66.3835C241.997 66.6866 242.074 67.0701 242.074 67.5341V71H241.235V67.5909C241.235 67.1624 241.124 66.8286 240.902 66.5895C240.679 66.348 240.374 66.2273 239.985 66.2273C239.718 66.2273 239.479 66.2853 239.268 66.4013C239.06 66.5173 238.895 66.6866 238.775 66.9091C238.654 67.1316 238.593 67.4015 238.593 67.7188ZM244.386 69.0114L244.372 67.9744H244.542L246.929 65.5455H247.966L245.423 68.1165H245.352L244.386 69.0114ZM243.605 71V63.7273H244.443V71H243.605ZM247.071 71L244.94 68.3011L245.537 67.7188L248.136 71H247.071ZM249.655 71.0568C249.48 71.0568 249.33 70.9941 249.204 70.8686C249.079 70.7431 249.016 70.5928 249.016 70.4176C249.016 70.2424 249.079 70.0921 249.204 69.9666C249.33 69.8411 249.48 69.7784 249.655 69.7784C249.83 69.7784 249.981 69.8411 250.106 69.9666C250.232 70.0921 250.294 70.2424 250.294 70.4176C250.294 70.5336 250.265 70.6402 250.206 70.7372C250.149 70.8343 250.072 70.9124 249.975 70.9716C249.88 71.0284 249.774 71.0568 249.655 71.0568ZM251.798 71V65.5455H252.636V71H251.798ZM252.224 64.6364C252.061 64.6364 251.92 64.5807 251.802 64.4695C251.686 64.3582 251.628 64.2244 251.628 64.0682C251.628 63.9119 251.686 63.7782 251.802 63.6669C251.92 63.5556 252.061 63.5 252.224 63.5C252.388 63.5 252.527 63.5556 252.643 63.6669C252.762 63.7782 252.821 63.9119 252.821 64.0682C252.821 64.2244 252.762 64.3582 252.643 64.4695C252.527 64.5807 252.388 64.6364 252.224 64.6364ZM256.231 71.1136C255.776 71.1136 255.375 70.9988 255.027 70.7692C254.679 70.5372 254.407 70.2105 254.21 69.7891C254.014 69.3653 253.916 68.8646 253.916 68.2869C253.916 67.714 254.014 67.2169 254.21 66.7955C254.407 66.3741 254.68 66.0485 255.031 65.8189C255.381 65.5893 255.786 65.4744 256.245 65.4744C256.6 65.4744 256.881 65.5336 257.087 65.652C257.295 65.768 257.454 65.9006 257.563 66.0497C257.674 66.1965 257.76 66.3172 257.822 66.4119H257.893V63.7273H258.731V71H257.921V70.1619H257.822C257.76 70.2614 257.673 70.3868 257.559 70.5384C257.445 70.6875 257.283 70.8213 257.073 70.9396C256.862 71.0556 256.581 71.1136 256.231 71.1136ZM256.345 70.3608C256.681 70.3608 256.965 70.2732 257.197 70.098C257.429 69.9205 257.605 69.6754 257.726 69.3629C257.847 69.0481 257.907 68.6847 257.907 68.2727C257.907 67.8655 257.848 67.5092 257.73 67.2038C257.611 66.8961 257.436 66.657 257.204 66.4865C256.972 66.3137 256.686 66.2273 256.345 66.2273C255.99 66.2273 255.694 66.3184 255.457 66.5007C255.222 66.6806 255.046 66.9257 254.928 67.2358C254.812 67.5436 254.754 67.8892 254.754 68.2727C254.754 68.661 254.813 69.0137 254.931 69.331C255.052 69.6458 255.23 69.8968 255.464 70.0838C255.701 70.2685 255.994 70.3608 256.345 70.3608Z" fill="#E5E9F5"/>
<circle cx="58" cy="67" r="4" fill="#FD8265"/>
<circle cx="82" cy="67" r="4" fill="#98D8B5"/>
<circle cx="70" cy="67" r="4" fill="#FBCE2E"/>
<g filter="url(#filter0_d_1498_495)">
<rect x="344" y="45" width="141" height="141" rx="21" fill="white"/>
</g>
<path d="M430.75 131.75H447V138.25H437.25V148H430.75V131.75ZM398.25 99.25H382V92.75H391.75V83H398.25V99.25ZM435.183 126.99L430.587 122.394L435.183 117.798C441.529 111.452 441.529 101.163 435.183 94.8171C428.837 88.4711 418.548 88.4711 412.202 94.8171L407.606 99.4133L403.01 94.8171L407.606 90.2209C416.49 81.3365 430.895 81.3365 439.779 90.2209C448.663 99.1054 448.663 113.51 439.779 122.394L435.183 126.99ZM425.99 136.183L421.394 140.779C412.51 149.663 398.105 149.663 389.221 140.779C380.337 131.895 380.337 117.49 389.221 108.606L393.817 104.01L398.413 108.606L393.817 113.202C387.471 119.548 387.471 129.837 393.817 136.183C400.163 142.529 410.452 142.529 416.798 136.183L421.394 131.587L425.99 136.183ZM423.692 101.711L428.288 106.308L405.308 129.288L400.711 124.692L423.692 101.711Z" fill="#E6EAF6"/>
<rect x="62" y="203" width="385" height="99" rx="16" fill="white"/>
<rect x="83" y="247" width="346" height="36" rx="18" fill="#ECEEF5"/>
<path d="M204.885 232V221.818H208.902C209.674 221.818 210.332 221.966 210.876 222.261C211.419 222.552 211.834 222.958 212.119 223.479C212.407 223.996 212.551 224.592 212.551 225.268C212.551 225.945 212.405 226.541 212.114 227.058C211.822 227.575 211.399 227.978 210.846 228.266C210.296 228.555 209.629 228.699 208.847 228.699H206.287V226.974H208.499C208.914 226.974 209.255 226.902 209.523 226.76C209.795 226.614 209.997 226.414 210.13 226.158C210.266 225.9 210.334 225.603 210.334 225.268C210.334 224.93 210.266 224.635 210.13 224.384C209.997 224.128 209.795 223.931 209.523 223.792C209.252 223.649 208.907 223.578 208.489 223.578H207.038V232H204.885ZM217.267 232.149C216.481 232.149 215.805 231.99 215.238 231.672C214.675 231.35 214.241 230.896 213.936 230.31C213.631 229.72 213.478 229.022 213.478 228.217C213.478 227.431 213.631 226.742 213.936 226.148C214.241 225.555 214.67 225.093 215.223 224.761C215.78 224.43 216.433 224.264 217.182 224.264C217.686 224.264 218.155 224.345 218.589 224.508C219.027 224.667 219.408 224.907 219.733 225.229C220.061 225.55 220.316 225.955 220.498 226.442C220.681 226.926 220.772 227.492 220.772 228.142V228.724H214.324V227.411H218.778C218.778 227.106 218.712 226.836 218.579 226.601C218.447 226.366 218.263 226.182 218.027 226.049C217.795 225.913 217.525 225.845 217.217 225.845C216.895 225.845 216.61 225.92 216.362 226.069C216.117 226.215 215.924 226.412 215.785 226.661C215.646 226.906 215.575 227.179 215.571 227.481V228.729C215.571 229.107 215.641 229.433 215.78 229.708C215.923 229.983 216.123 230.195 216.382 230.344C216.64 230.494 216.947 230.568 217.301 230.568C217.537 230.568 217.752 230.535 217.948 230.469C218.143 230.402 218.311 230.303 218.45 230.17C218.589 230.038 218.695 229.875 218.768 229.683L220.727 229.812C220.627 230.283 220.424 230.694 220.115 231.045C219.81 231.393 219.416 231.665 218.932 231.861C218.452 232.053 217.896 232.149 217.267 232.149ZM224.272 227.585V232H222.154V224.364H224.172V225.711H224.262C224.431 225.267 224.714 224.915 225.112 224.657C225.51 224.395 225.992 224.264 226.559 224.264C227.089 224.264 227.551 224.38 227.946 224.612C228.34 224.844 228.647 225.176 228.865 225.607C229.084 226.034 229.194 226.545 229.194 227.138V232H227.076V227.516C227.079 227.048 226.96 226.684 226.718 226.422C226.476 226.157 226.143 226.024 225.718 226.024C225.433 226.024 225.181 226.085 224.963 226.208C224.747 226.331 224.578 226.51 224.456 226.745C224.336 226.977 224.275 227.257 224.272 227.585ZM233.677 232.124C233.097 232.124 232.571 231.975 232.101 231.677C231.633 231.375 231.262 230.933 230.987 230.349C230.715 229.763 230.579 229.044 230.579 228.192C230.579 227.317 230.72 226.589 231.002 226.009C231.284 225.426 231.658 224.99 232.126 224.702C232.596 224.41 233.112 224.264 233.672 224.264C234.099 224.264 234.456 224.337 234.741 224.483C235.029 224.625 235.261 224.804 235.437 225.02C235.616 225.232 235.751 225.441 235.844 225.646H235.909V221.818H238.022V232H235.934V230.777H235.844C235.745 230.989 235.604 231.2 235.422 231.408C235.243 231.614 235.009 231.785 234.721 231.92C234.436 232.056 234.088 232.124 233.677 232.124ZM234.348 230.439C234.689 230.439 234.978 230.346 235.213 230.161C235.452 229.972 235.634 229.708 235.76 229.37C235.889 229.032 235.954 228.636 235.954 228.182C235.954 227.728 235.891 227.333 235.765 226.999C235.639 226.664 235.456 226.405 235.218 226.223C234.979 226.041 234.689 225.95 234.348 225.95C234 225.95 233.706 226.044 233.468 226.233C233.229 226.422 233.049 226.684 232.926 227.018C232.803 227.353 232.742 227.741 232.742 228.182C232.742 228.626 232.803 229.019 232.926 229.36C233.052 229.698 233.233 229.963 233.468 230.156C233.706 230.344 234 230.439 234.348 230.439ZM243.243 232.149C242.458 232.149 241.782 231.99 241.215 231.672C240.651 231.35 240.217 230.896 239.912 230.31C239.607 229.72 239.455 229.022 239.455 228.217C239.455 227.431 239.607 226.742 239.912 226.148C240.217 225.555 240.646 225.093 241.2 224.761C241.757 224.43 242.41 224.264 243.159 224.264C243.663 224.264 244.132 224.345 244.566 224.508C245.003 224.667 245.384 224.907 245.709 225.229C246.037 225.55 246.292 225.955 246.475 226.442C246.657 226.926 246.748 227.492 246.748 228.142V228.724H240.3V227.411H244.755C244.755 227.106 244.688 226.836 244.556 226.601C244.423 226.366 244.239 226.182 244.004 226.049C243.772 225.913 243.502 225.845 243.194 225.845C242.872 225.845 242.587 225.92 242.338 226.069C242.093 226.215 241.901 226.412 241.762 226.661C241.623 226.906 241.551 227.179 241.548 227.481V228.729C241.548 229.107 241.618 229.433 241.757 229.708C241.899 229.983 242.1 230.195 242.358 230.344C242.617 230.494 242.923 230.568 243.278 230.568C243.513 230.568 243.729 230.535 243.924 230.469C244.12 230.402 244.287 230.303 244.426 230.17C244.566 230.038 244.672 229.875 244.745 229.683L246.703 229.812C246.604 230.283 246.4 230.694 246.092 231.045C245.787 231.393 245.393 231.665 244.909 231.861C244.428 232.053 243.873 232.149 243.243 232.149ZM250.049 229.803L250.054 227.262H250.363L252.809 224.364H255.24L251.953 228.202H251.451L250.049 229.803ZM248.13 232V221.818H250.248V232H248.13ZM252.903 232L250.656 228.674L252.068 227.178L255.384 232H252.903ZM258.456 232.144C257.969 232.144 257.535 232.06 257.154 231.891C256.773 231.718 256.471 231.465 256.249 231.13C256.03 230.792 255.921 230.371 255.921 229.867C255.921 229.443 255.999 229.087 256.154 228.798C256.31 228.51 256.522 228.278 256.791 228.102C257.059 227.927 257.364 227.794 257.706 227.705C258.05 227.615 258.412 227.552 258.789 227.516C259.234 227.469 259.592 227.426 259.863 227.386C260.135 227.343 260.332 227.28 260.455 227.197C260.578 227.115 260.639 226.992 260.639 226.83V226.8C260.639 226.485 260.539 226.241 260.341 226.069C260.145 225.897 259.867 225.81 259.505 225.81C259.124 225.81 258.821 225.895 258.596 226.064C258.37 226.23 258.221 226.438 258.148 226.69L256.189 226.531C256.289 226.067 256.484 225.666 256.776 225.328C257.068 224.987 257.444 224.725 257.904 224.543C258.368 224.357 258.905 224.264 259.515 224.264C259.94 224.264 260.346 224.314 260.733 224.413C261.124 224.513 261.471 224.667 261.772 224.876C262.077 225.085 262.318 225.353 262.493 225.681C262.669 226.006 262.757 226.395 262.757 226.849V232H260.748V230.941H260.689C260.566 231.18 260.402 231.39 260.196 231.572C259.991 231.751 259.744 231.892 259.456 231.995C259.167 232.094 258.834 232.144 258.456 232.144ZM259.063 230.683C259.374 230.683 259.65 230.621 259.888 230.499C260.127 230.373 260.314 230.204 260.45 229.991C260.586 229.779 260.654 229.539 260.654 229.271V228.46C260.587 228.503 260.496 228.543 260.38 228.58C260.268 228.613 260.14 228.644 259.998 228.674C259.855 228.701 259.712 228.725 259.57 228.749C259.427 228.768 259.298 228.787 259.182 228.803C258.934 228.84 258.717 228.898 258.531 228.977C258.345 229.057 258.201 229.165 258.098 229.3C257.996 229.433 257.944 229.599 257.944 229.798C257.944 230.086 258.049 230.306 258.257 230.459C258.47 230.608 258.738 230.683 259.063 230.683ZM266.518 227.585V232H264.4V224.364H266.418V225.711H266.508C266.677 225.267 266.96 224.915 267.358 224.657C267.756 224.395 268.238 224.264 268.805 224.264C269.335 224.264 269.797 224.38 270.192 224.612C270.586 224.844 270.893 225.176 271.112 225.607C271.33 226.034 271.44 226.545 271.44 227.138V232H269.322V227.516C269.325 227.048 269.206 226.684 268.964 226.422C268.722 226.157 268.389 226.024 267.964 226.024C267.679 226.024 267.428 226.085 267.209 226.208C266.993 226.331 266.824 226.51 266.702 226.745C266.582 226.977 266.521 227.257 266.518 227.585ZM276.389 232V221.818H278.542V230.225H282.907V232H276.389ZM284.292 232V224.364H286.41V232H284.292ZM285.356 223.379C285.041 223.379 284.771 223.275 284.546 223.066C284.324 222.854 284.213 222.6 284.213 222.305C284.213 222.014 284.324 221.763 284.546 221.555C284.771 221.343 285.041 221.237 285.356 221.237C285.671 221.237 285.94 221.343 286.162 221.555C286.387 221.763 286.5 222.014 286.5 222.305C286.5 222.6 286.387 222.854 286.162 223.066C285.94 223.275 285.671 223.379 285.356 223.379ZM290.225 227.585V232H288.107V224.364H290.125V225.711H290.215C290.384 225.267 290.667 224.915 291.065 224.657C291.463 224.395 291.945 224.264 292.512 224.264C293.042 224.264 293.504 224.38 293.899 224.612C294.293 224.844 294.6 225.176 294.819 225.607C295.037 226.034 295.147 226.545 295.147 227.138V232H293.029V227.516C293.032 227.048 292.913 226.684 292.671 226.422C292.429 226.157 292.096 226.024 291.672 226.024C291.386 226.024 291.135 226.085 290.916 226.208C290.7 226.331 290.531 226.51 290.409 226.745C290.289 226.977 290.228 227.257 290.225 227.585ZM298.735 229.803L298.74 227.262H299.048L301.494 224.364H303.925L300.639 228.202H300.137L298.735 229.803ZM296.816 232V221.818H298.934V232H296.816ZM301.589 232L299.341 228.674L300.753 227.178L304.069 232H301.589Z" fill="#6F7E94"/>
<path d="M98.9588 270V261.273H100.233V264.516H100.31C100.384 264.379 100.49 264.222 100.629 264.043C100.768 263.864 100.962 263.707 101.209 263.574C101.456 263.438 101.783 263.369 102.189 263.369C102.717 263.369 103.189 263.503 103.604 263.77C104.018 264.037 104.344 264.422 104.58 264.925C104.818 265.428 104.938 266.033 104.938 266.74C104.938 267.447 104.82 268.054 104.584 268.56C104.348 269.062 104.024 269.45 103.612 269.723C103.2 269.993 102.73 270.128 102.202 270.128C101.804 270.128 101.479 270.061 101.226 269.928C100.976 269.794 100.78 269.638 100.638 269.459C100.496 269.28 100.386 269.121 100.31 268.982H100.203V270H98.9588ZM100.207 266.727C100.207 267.187 100.274 267.591 100.408 267.938C100.541 268.284 100.734 268.555 100.987 268.751C101.24 268.945 101.55 269.041 101.916 269.041C102.297 269.041 102.615 268.94 102.871 268.739C103.126 268.534 103.32 268.257 103.45 267.908C103.584 267.558 103.651 267.165 103.651 266.727C103.651 266.295 103.585 265.908 103.455 265.564C103.327 265.22 103.134 264.949 102.875 264.75C102.619 264.551 102.3 264.452 101.916 264.452C101.547 264.452 101.234 264.547 100.979 264.737C100.726 264.928 100.534 265.193 100.403 265.534C100.273 265.875 100.207 266.273 100.207 266.727ZM109.189 270.132C108.544 270.132 107.989 269.994 107.523 269.719C107.06 269.44 106.702 269.05 106.449 268.547C106.199 268.041 106.074 267.449 106.074 266.77C106.074 266.099 106.199 265.509 106.449 264.997C106.702 264.486 107.054 264.087 107.506 263.8C107.961 263.513 108.492 263.369 109.1 263.369C109.469 263.369 109.827 263.43 110.174 263.553C110.52 263.675 110.831 263.866 111.107 264.128C111.382 264.389 111.6 264.729 111.759 265.146C111.918 265.561 111.998 266.065 111.998 266.659V267.111H106.794V266.156H110.749C110.749 265.821 110.681 265.524 110.544 265.266C110.408 265.004 110.216 264.798 109.969 264.648C109.725 264.497 109.438 264.422 109.108 264.422C108.75 264.422 108.438 264.51 108.171 264.686C107.907 264.859 107.702 265.087 107.557 265.368C107.415 265.646 107.344 265.949 107.344 266.276V267.021C107.344 267.459 107.421 267.831 107.574 268.138C107.73 268.445 107.948 268.679 108.226 268.841C108.505 269 108.83 269.08 109.202 269.08C109.444 269.08 109.664 269.045 109.863 268.977C110.061 268.906 110.233 268.801 110.378 268.662C110.523 268.523 110.634 268.351 110.711 268.146L111.917 268.364C111.82 268.719 111.647 269.03 111.397 269.297C111.15 269.561 110.838 269.767 110.463 269.915C110.091 270.06 109.667 270.132 109.189 270.132ZM115.862 270.128C115.333 270.128 114.862 269.993 114.447 269.723C114.035 269.45 113.711 269.062 113.475 268.56C113.242 268.054 113.126 267.447 113.126 266.74C113.126 266.033 113.244 265.428 113.479 264.925C113.718 264.422 114.045 264.037 114.46 263.77C114.874 263.503 115.344 263.369 115.87 263.369C116.276 263.369 116.603 263.438 116.85 263.574C117.1 263.707 117.293 263.864 117.43 264.043C117.569 264.222 117.677 264.379 117.754 264.516H117.83V261.273H119.104V270H117.86V268.982H117.754C117.677 269.121 117.566 269.28 117.421 269.459C117.279 269.638 117.083 269.794 116.833 269.928C116.583 270.061 116.259 270.128 115.862 270.128ZM116.143 269.041C116.509 269.041 116.819 268.945 117.072 268.751C117.327 268.555 117.521 268.284 117.651 267.938C117.785 267.591 117.852 267.187 117.852 266.727C117.852 266.273 117.786 265.875 117.656 265.534C117.525 265.193 117.333 264.928 117.08 264.737C116.827 264.547 116.515 264.452 116.143 264.452C115.759 264.452 115.44 264.551 115.184 264.75C114.928 264.949 114.735 265.22 114.604 265.564C114.477 265.908 114.413 266.295 114.413 266.727C114.413 267.165 114.478 267.558 114.609 267.908C114.739 268.257 114.933 268.534 115.188 268.739C115.447 268.94 115.765 269.041 116.143 269.041ZM122.197 261.273V270H120.923V261.273H122.197ZM123.911 270V263.455H125.185V270H123.911ZM124.555 262.445C124.333 262.445 124.143 262.371 123.984 262.223C123.827 262.072 123.749 261.893 123.749 261.686C123.749 261.476 123.827 261.297 123.984 261.149C124.143 260.999 124.333 260.923 124.555 260.923C124.776 260.923 124.965 260.999 125.121 261.149C125.281 261.297 125.36 261.476 125.36 261.686C125.36 261.893 125.281 262.072 125.121 262.223C124.965 262.371 124.776 262.445 124.555 262.445ZM128.174 266.114V270H126.9V263.455H128.123V264.52H128.203C128.354 264.173 128.59 263.895 128.911 263.685C129.235 263.474 129.642 263.369 130.134 263.369C130.58 263.369 130.971 263.463 131.306 263.651C131.641 263.835 131.901 264.111 132.086 264.477C132.27 264.844 132.363 265.297 132.363 265.837V270H131.088V265.99C131.088 265.516 130.965 265.145 130.718 264.878C130.471 264.608 130.131 264.473 129.699 264.473C129.404 264.473 129.141 264.537 128.911 264.665C128.684 264.793 128.503 264.98 128.37 265.227C128.239 265.472 128.174 265.767 128.174 266.114ZM135.243 267.78L135.235 266.224H135.456L138.064 263.455H139.59L136.615 266.608H136.415L135.243 267.78ZM134.071 270V261.273H135.346V270H134.071ZM138.205 270L135.861 266.889L136.739 265.999L139.769 270H138.205ZM141.591 270.081C141.358 270.081 141.157 269.999 140.99 269.834C140.822 269.666 140.738 269.464 140.738 269.229C140.738 268.996 140.822 268.797 140.99 268.632C141.157 268.464 141.358 268.381 141.591 268.381C141.824 268.381 142.024 268.464 142.191 268.632C142.359 268.797 142.443 268.996 142.443 269.229C142.443 269.385 142.403 269.528 142.324 269.659C142.247 269.787 142.145 269.889 142.017 269.966C141.889 270.043 141.747 270.081 141.591 270.081ZM144.15 270V263.455H145.424V270H144.15ZM144.793 262.445C144.571 262.445 144.381 262.371 144.222 262.223C144.066 262.072 143.988 261.893 143.988 261.686C143.988 261.476 144.066 261.297 144.222 261.149C144.381 260.999 144.571 260.923 144.793 260.923C145.015 260.923 145.203 260.999 145.36 261.149C145.519 261.297 145.598 261.476 145.598 261.686C145.598 261.893 145.519 262.072 145.36 262.223C145.203 262.371 145.015 262.445 144.793 262.445ZM149.588 270.128C149.06 270.128 148.588 269.993 148.173 269.723C147.761 269.45 147.438 269.062 147.202 268.56C146.969 268.054 146.852 267.447 146.852 266.74C146.852 266.033 146.97 265.428 147.206 264.925C147.445 264.422 147.771 264.037 148.186 263.77C148.601 263.503 149.071 263.369 149.597 263.369C150.003 263.369 150.33 263.438 150.577 263.574C150.827 263.707 151.02 263.864 151.156 264.043C151.295 264.222 151.403 264.379 151.48 264.516H151.557V261.273H152.831V270H151.587V268.982H151.48C151.403 269.121 151.293 269.28 151.148 269.459C151.006 269.638 150.81 269.794 150.56 269.928C150.31 270.061 149.986 270.128 149.588 270.128ZM149.869 269.041C150.236 269.041 150.545 268.945 150.798 268.751C151.054 268.555 151.247 268.284 151.378 267.938C151.511 267.591 151.578 267.187 151.578 266.727C151.578 266.273 151.513 265.875 151.382 265.534C151.251 265.193 151.06 264.928 150.807 264.737C150.554 264.547 150.241 264.452 149.869 264.452C149.486 264.452 149.166 264.551 148.911 264.75C148.655 264.949 148.462 265.22 148.331 265.564C148.203 265.908 148.139 266.295 148.139 266.727C148.139 267.165 148.205 267.558 148.335 267.908C148.466 268.257 148.659 268.534 148.915 268.739C149.173 268.94 149.491 269.041 149.869 269.041ZM157.973 260.864L155.161 271.312H154.023L156.836 260.864H157.973Z" fill="#6F7E94"/>
<path d="M159.861 272.455C159.671 272.455 159.498 272.439 159.341 272.408C159.185 272.379 159.069 272.348 158.992 272.314L159.299 271.27C159.532 271.332 159.739 271.359 159.921 271.351C160.103 271.342 160.263 271.274 160.402 271.146C160.544 271.018 160.669 270.81 160.777 270.52L160.935 270.085L158.54 263.455H159.904L161.561 268.534H161.63L163.287 263.455H164.655L161.958 270.874C161.833 271.214 161.674 271.503 161.48 271.739C161.287 271.977 161.057 272.156 160.79 272.276C160.523 272.395 160.213 272.455 159.861 272.455ZM168.387 270.132C167.773 270.132 167.238 269.991 166.781 269.71C166.323 269.429 165.968 269.036 165.715 268.53C165.462 268.024 165.336 267.433 165.336 266.757C165.336 266.078 165.462 265.484 165.715 264.976C165.968 264.467 166.323 264.072 166.781 263.791C167.238 263.51 167.773 263.369 168.387 263.369C169.001 263.369 169.536 263.51 169.994 263.791C170.451 264.072 170.806 264.467 171.059 264.976C171.312 265.484 171.438 266.078 171.438 266.757C171.438 267.433 171.312 268.024 171.059 268.53C170.806 269.036 170.451 269.429 169.994 269.71C169.536 269.991 169.001 270.132 168.387 270.132ZM168.391 269.062C168.789 269.062 169.119 268.957 169.38 268.747C169.641 268.537 169.835 268.257 169.96 267.908C170.087 267.558 170.151 267.173 170.151 266.753C170.151 266.335 170.087 265.952 169.96 265.602C169.835 265.25 169.641 264.967 169.38 264.754C169.119 264.541 168.789 264.435 168.391 264.435C167.991 264.435 167.658 264.541 167.394 264.754C167.133 264.967 166.938 265.25 166.81 265.602C166.685 265.952 166.623 266.335 166.623 266.753C166.623 267.173 166.685 267.558 166.81 267.908C166.938 268.257 167.133 268.537 167.394 268.747C167.658 268.957 167.991 269.062 168.391 269.062ZM177.007 267.286V263.455H178.285V270H177.032V268.866H176.964C176.814 269.216 176.572 269.507 176.24 269.74C175.91 269.97 175.5 270.085 175.008 270.085C174.588 270.085 174.216 269.993 173.892 269.808C173.571 269.621 173.318 269.344 173.133 268.977C172.951 268.611 172.86 268.158 172.86 267.618V263.455H174.135V267.464C174.135 267.911 174.258 268.266 174.505 268.53C174.752 268.794 175.074 268.926 175.468 268.926C175.707 268.926 175.944 268.866 176.18 268.747C176.419 268.628 176.616 268.447 176.772 268.206C176.931 267.964 177.01 267.658 177.007 267.286ZM179.997 270V263.455H181.229V264.494H181.297C181.416 264.142 181.626 263.865 181.928 263.663C182.232 263.459 182.575 263.357 182.959 263.357C183.038 263.357 183.132 263.359 183.24 263.365C183.351 263.371 183.438 263.378 183.5 263.386V264.605C183.449 264.591 183.358 264.575 183.227 264.558C183.097 264.538 182.966 264.528 182.835 264.528C182.534 264.528 182.266 264.592 182.03 264.72C181.797 264.845 181.612 265.02 181.476 265.244C181.339 265.466 181.271 265.719 181.271 266.003V270H179.997ZM185.877 261.273V270H184.603V261.273H185.877ZM187.591 270V263.455H188.865V270H187.591ZM188.234 262.445C188.013 262.445 187.822 262.371 187.663 262.223C187.507 262.072 187.429 261.893 187.429 261.686C187.429 261.476 187.507 261.297 187.663 261.149C187.822 260.999 188.013 260.923 188.234 260.923C188.456 260.923 188.645 260.999 188.801 261.149C188.96 261.297 189.04 261.476 189.04 261.686C189.04 261.893 188.96 262.072 188.801 262.223C188.645 262.371 188.456 262.445 188.234 262.445ZM191.853 266.114V270H190.579V263.455H191.802V264.52H191.883C192.034 264.173 192.27 263.895 192.591 263.685C192.914 263.474 193.322 263.369 193.814 263.369C194.26 263.369 194.65 263.463 194.985 263.651C195.321 263.835 195.581 264.111 195.765 264.477C195.95 264.844 196.042 265.297 196.042 265.837V270H194.768V265.99C194.768 265.516 194.645 265.145 194.397 264.878C194.15 264.608 193.811 264.473 193.379 264.473C193.083 264.473 192.821 264.537 192.591 264.665C192.363 264.793 192.183 264.98 192.049 265.227C191.919 265.472 191.853 265.767 191.853 266.114ZM198.923 267.78L198.914 266.224H199.136L201.744 263.455H203.27L200.295 266.608H200.095L198.923 267.78ZM197.751 270V261.273H199.025V270H197.751ZM201.885 270L199.541 266.889L200.419 265.999L203.449 270H201.885Z" fill="#C2CAD5"/>
<defs>
<filter id="filter0_d_1498_495" x="323.4" y="24.4" width="182.2" height="182.2" filterUnits="userSpaceOnUse" color-interpolation-filters="sRGB">
<feFlood flood-opacity="0" result="BackgroundImageFix"/>
<feColorMatrix in="SourceAlpha" type="matrix" values="0 0 0 0 0 0 0 0 0 0 0 0 0 0 0 0 0 0 127 0" result="hardAlpha"/>
<feMorphology radius="9" operator="erode" in="SourceAlpha" result="effect1_dropShadow_1498_495"/>
<feOffset/>
<feGaussianBlur stdDeviation="14.8"/>
<feComposite in2="hardAlpha" operator="out"/>
<feColorMatrix type="matrix" values="0 0 0 0 0 0 0 0 0 0 0 0 0 0 0 0 0 0 0.25 0"/>
<feBlend mode="normal" in2="BackgroundImageFix" result="effect1_dropShadow_1498_495"/>
<feBlend mode="normal" in="SourceGraphic" in2="effect1_dropShadow_1498_495" result="shape"/>
</filter>
</defs>
</svg>
