<svg width="186" height="53" viewBox="0 0 186 53" fill="none" xmlns="http://www.w3.org/2000/svg">
<path d="M0 10.027C0 4.48925 4.4859 0 10.0195 0H42.9409C48.4745 0 52.9604 4.48925 52.9604 10.027V42.973C52.9604 48.5107 48.4745 53 42.9409 53H10.0195C4.4859 53 0 48.5107 0 42.973V10.027Z" fill="#196ECD"/>
<path fill-rule="evenodd" clip-rule="evenodd" d="M32.672 32.5108L34.7072 32.5122L34.698 34.4763L32.673 34.4675L32.672 32.5108ZM29.182 28.8457L32.328 28.8265L32.3194 31.9052L29.1868 31.8856L29.182 28.8457ZM24.6447 32.4389C24.8119 32.6048 26.5439 32.5192 26.8096 32.5192C27.5404 32.5192 28.3028 32.4982 29.0259 32.5295L29.0312 38.0284L24.5505 38.0396L24.5722 44.3512C26.2148 44.4661 28.2505 44.361 29.9378 44.3647C31.5823 44.368 33.2875 44.4199 34.7519 43.8988C37.3222 42.9847 39.2829 41.1921 40.2501 38.9009C41.4767 35.997 41.1668 32.9903 39.5659 30.5925C37.9636 28.1928 35.9842 27.168 33.1866 26.5147C34.8085 26.0465 36.0154 25.7455 37.1704 24.8707C44.4213 19.3788 40.4471 9.83533 33.4076 8.79836C31.6578 8.54087 29.7965 8.62499 27.9925 8.62639C24.3166 8.62919 24.5212 8.35581 24.5433 9.36287C24.5529 9.79421 24.5342 10.2283 24.5616 10.6583C25.5869 11.1508 26.7875 11.1167 28.5253 12.3004C32.4899 15.001 33.9865 18.2961 33.9284 23.4561L24.5659 23.4739C24.4934 24.3515 24.4977 32.243 24.6447 32.4389Z" fill="white"/>
<path fill-rule="evenodd" clip-rule="evenodd" d="M22.899 8.8194C22.5776 9.20493 21.2424 13.2575 20.9253 14.1033C20.2565 15.8889 19.6387 17.6615 18.9771 19.4438L14.0948 32.7898C13.7498 33.7025 13.4697 34.5595 13.1315 35.4736C12.8115 36.3381 12.4819 37.2284 12.1591 38.148C11.4557 40.1514 10.7754 41.7155 12.7548 43.4941C13.4678 44.1343 14.3538 44.368 15.5424 44.3652C16.7786 44.3624 22.1961 44.4273 22.9264 44.3437C23.0594 43.0955 22.9456 41.1973 22.9456 39.878C22.9456 35.1974 23.0172 9.09278 22.899 8.8194Z" fill="white"/>
<path fill-rule="evenodd" clip-rule="evenodd" d="M31.1679 20.5261C31.2184 19.762 30.6961 18.6737 30.3954 18.1068C29.6238 16.6521 28.7398 15.6399 27.2691 14.7403C26.9208 14.5276 25.4881 13.7673 25.0754 13.7855C24.9217 14.4515 24.9856 19.1905 25.0269 20.149C25.0523 20.7401 25.5582 20.5401 26.1968 20.5387C27.6448 20.5359 29.8981 20.5981 31.1679 20.5261Z" fill="white"/>
<path d="M70.8769 37.2432V12.2408H76.0737V21.6411H76.2323C76.46 21.1365 76.7894 20.6238 77.2204 20.1029C77.6596 19.5739 78.2289 19.1344 78.9283 18.7844C79.6359 18.4263 80.5142 18.2472 81.5633 18.2472C82.9296 18.2472 84.1902 18.6053 85.345 19.3216C86.4999 20.0296 87.423 21.0999 88.1142 22.5323C88.8055 23.9566 89.1512 25.7431 89.1512 27.8917C89.1512 29.9834 88.8137 31.7495 88.1386 33.1901C87.4718 34.6225 86.5609 35.7091 85.406 36.4497C84.2593 37.1822 82.9743 37.5484 81.5511 37.5484C80.5427 37.5484 79.6847 37.3816 78.9771 37.0479C78.2777 36.7142 77.7043 36.2951 77.257 35.7905C76.8097 35.2777 76.4681 34.7609 76.2323 34.24H76.0005V37.2432H70.8769ZM75.9639 27.8673C75.9639 28.9823 76.1184 29.9549 76.4275 30.7851C76.7365 31.6152 77.1838 32.2623 77.7694 32.7262C78.355 33.182 79.0666 33.4099 79.9042 33.4099C80.75 33.4099 81.4657 33.1779 82.0513 32.714C82.6368 32.2419 83.0801 31.5908 83.381 30.7607C83.69 29.9224 83.8446 28.9579 83.8446 27.8673C83.8446 26.7849 83.6941 25.8326 83.3932 25.0106C83.0923 24.1886 82.649 23.5456 82.0635 23.0817C81.4779 22.6178 80.7582 22.3858 79.9042 22.3858C79.0584 22.3858 78.3428 22.6096 77.7572 23.0573C77.1798 23.5049 76.7365 24.1397 76.4275 24.9618C76.1184 25.7838 75.9639 26.7523 75.9639 27.8673Z" fill="white"/>
<path d="M101.158 37.6095C99.2307 37.6095 97.5716 37.2188 96.1809 36.4375C94.7983 35.648 93.733 34.533 92.9847 33.0924C92.2365 31.6437 91.8624 29.9305 91.8624 27.9528C91.8624 26.0239 92.2365 24.331 92.9847 22.8742C93.733 21.4173 94.7861 20.2819 96.1443 19.4681C97.5106 18.6542 99.1128 18.2472 100.951 18.2472C102.187 18.2472 103.338 18.4466 104.403 18.8454C105.477 19.2361 106.412 19.8262 107.209 20.6156C108.014 21.4051 108.64 22.398 109.088 23.5944C109.535 24.7827 109.759 26.1744 109.759 27.7697V29.198H93.9363V25.975H104.867C104.867 25.2263 104.704 24.563 104.379 23.9851C104.053 23.4072 103.602 22.9555 103.025 22.63C102.455 22.2963 101.793 22.1295 101.036 22.1295C100.247 22.1295 99.5479 22.3126 98.9379 22.6788C98.3361 23.0369 97.8644 23.5212 97.5228 24.1316C97.1812 24.7339 97.0064 25.4053 96.9983 26.146V29.2102C96.9983 30.1381 97.169 30.9397 97.5106 31.6152C97.8603 32.2908 98.3524 32.8117 98.9867 33.1779C99.6211 33.5441 100.373 33.7273 101.244 33.7273C101.821 33.7273 102.35 33.6459 102.829 33.4831C103.309 33.3203 103.72 33.0762 104.062 32.7506C104.403 32.4251 104.663 32.0263 104.842 31.5542L109.649 31.8716C109.405 33.0273 108.905 34.0365 108.148 34.8993C107.4 35.7538 106.432 36.4212 105.245 36.9014C104.066 37.3735 102.703 37.6095 101.158 37.6095Z" fill="white"/>
<path d="M120.055 37.5484C118.631 37.5484 117.342 37.1822 116.187 36.4497C115.041 35.7091 114.13 34.6225 113.455 33.1901C112.788 31.7495 112.455 29.9834 112.455 27.8917C112.455 25.7431 112.8 23.9566 113.491 22.5323C114.183 21.0999 115.102 20.0296 116.248 19.3216C117.403 18.6053 118.668 18.2472 120.042 18.2472C121.092 18.2472 121.966 18.4263 122.665 18.7844C123.373 19.1344 123.942 19.5739 124.373 20.1029C124.812 20.6238 125.146 21.1365 125.373 21.6411H125.532V12.2408H130.717V37.2432H125.593V34.24H125.373C125.129 34.7609 124.784 35.2777 124.336 35.7905C123.897 36.2951 123.324 36.7142 122.616 37.0479C121.917 37.3816 121.063 37.5484 120.055 37.5484ZM121.701 33.4099C122.539 33.4099 123.247 33.182 123.824 32.7262C124.41 32.2623 124.857 31.6152 125.166 30.7851C125.483 29.9549 125.642 28.9823 125.642 27.8673C125.642 26.7523 125.487 25.7838 125.178 24.9618C124.869 24.1397 124.422 23.5049 123.836 23.0573C123.251 22.6096 122.539 22.3858 121.701 22.3858C120.848 22.3858 120.128 22.6178 119.542 23.0817C118.957 23.5456 118.513 24.1886 118.213 25.0106C117.912 25.8326 117.761 26.7849 117.761 27.8673C117.761 28.9579 117.912 29.9224 118.213 30.7607C118.522 31.5908 118.965 32.2419 119.542 32.714C120.128 33.1779 120.848 33.4099 121.701 33.4099Z" fill="white"/>
<path d="M137.954 12.2408V37.2432H135.782V12.2408H137.954Z" fill="white"/>
<path d="M143.724 37.2432V18.4914H145.908V37.2432H143.724ZM144.834 15.2684C144.387 15.2684 144.005 15.1179 143.687 14.8167C143.37 14.5074 143.212 14.1371 143.212 13.7058C143.212 13.2744 143.37 12.9082 143.687 12.607C144.005 12.2978 144.387 12.1431 144.834 12.1431C145.281 12.1431 145.664 12.2978 145.981 12.607C146.298 12.9082 146.457 13.2744 146.457 13.7058C146.457 14.1371 146.298 14.5074 145.981 14.8167C145.664 15.1179 145.281 15.2684 144.834 15.2684Z" fill="white"/>
<path d="M153.822 25.5233V37.2432H151.65V18.4914H153.761V21.4336H153.956C154.395 20.4732 155.078 19.7041 156.005 19.1262C156.941 18.5402 158.096 18.2472 159.47 18.2472C160.731 18.2472 161.837 18.5117 162.788 19.0408C163.748 19.5617 164.492 20.3308 165.021 21.3481C165.557 22.3655 165.826 23.6148 165.826 25.0961V37.2432H163.654V25.2303C163.654 23.6921 163.223 22.4754 162.361 21.5801C161.507 20.6848 160.36 20.2372 158.921 20.2372C157.937 20.2372 157.063 20.4488 156.298 20.872C155.534 21.2952 154.928 21.9056 154.48 22.7032C154.041 23.4927 153.822 24.4327 153.822 25.5233Z" fill="white"/>
<path d="M173.52 30.1625L173.496 27.3179H173.984L182.767 18.4914H185.512L176.838 27.1837L176.643 27.2203L173.52 30.1625ZM171.544 37.2432V12.2408H173.715V37.2432H171.544ZM183.219 37.2432L175.606 27.6109L177.168 26.1093L186 37.2432H183.219Z" fill="white"/>
</svg>
