<svg width="142" height="37" viewBox="0 0 142 37" fill="none" xmlns="http://www.w3.org/2000/svg">
<rect width="37" height="37" rx="7" fill="#015BBE"/>
<g clip-path="url(#clip0_1423_75)">
<path fill-rule="evenodd" clip-rule="evenodd" d="M22.8244 22.6962L24.2463 22.6972L24.2399 24.0684L22.8251 24.0622L22.8241 22.6962H22.8244ZM20.3862 20.1376L22.5841 20.1242L22.5781 22.2734L20.3896 22.2597L20.3862 20.1376ZM17.2163 22.646C17.3331 22.7618 18.5431 22.7021 18.7288 22.7021C19.2393 22.7021 19.772 22.6874 20.2771 22.7093L20.2808 26.5481L17.1505 26.556L17.1656 30.9621C18.3132 31.0424 19.7354 30.969 20.9142 30.9716C22.0632 30.9739 23.2544 31.0101 24.2775 30.6463C26.0733 30.0082 27.4431 28.7568 28.1187 27.1572C28.9757 25.13 28.7592 23.031 27.6408 21.357C26.5214 19.6818 25.1385 18.9664 23.1839 18.5103C24.3171 18.1834 25.1603 17.9733 25.9672 17.3626C31.0329 13.5286 28.2564 6.86619 23.3383 6.14226C22.1159 5.96251 20.8155 6.02123 19.5551 6.02221C16.987 6.02417 17.13 5.83332 17.1455 6.53636C17.1522 6.83748 17.1391 7.14055 17.1582 7.44069C17.8745 7.78455 18.7133 7.76073 19.9274 8.58709C22.6972 10.4724 23.7428 12.7727 23.7022 16.3751L17.1612 16.3875C17.1106 17.0001 17.1129 22.51 17.2156 22.6467L17.2163 22.646Z" fill="white"/>
<path fill-rule="evenodd" clip-rule="evenodd" d="M15.9982 6.15698C15.7736 6.42613 14.8408 9.25527 14.6193 9.84576C14.1521 11.0923 13.7204 12.3297 13.2582 13.574L9.84729 22.891C9.60629 23.5282 9.4106 24.1265 9.1743 24.7646C8.95075 25.3682 8.72049 25.9897 8.49493 26.6317C8.00353 28.0303 7.52824 29.1222 8.91114 30.3639C9.40926 30.8108 10.0282 30.9739 10.8586 30.972C11.7223 30.97 15.5071 31.0154 16.0173 30.957C16.1103 30.0856 16.0308 28.7604 16.0308 27.8394C16.0308 24.5718 16.0808 6.34816 15.9982 6.15731V6.15698Z" fill="white"/>
<path fill-rule="evenodd" clip-rule="evenodd" d="M21.7738 14.3297C21.8091 13.7963 21.4442 13.0365 21.2341 12.6407C20.695 11.6251 20.0774 10.9185 19.05 10.2905C18.8066 10.1421 17.8057 9.61128 17.5174 9.624C17.4099 10.0889 17.4546 13.3973 17.4835 14.0664C17.5012 14.4791 17.8547 14.3395 18.3008 14.3385C19.3124 14.3365 20.8867 14.3796 21.7738 14.3293V14.3297Z" fill="white"/>
</g>
<path d="M49.517 26V8.54545H53.1477V15.108H53.2585C53.4176 14.7557 53.6477 14.3977 53.9489 14.0341C54.2557 13.6648 54.6534 13.358 55.142 13.1136C55.6364 12.8636 56.25 12.7386 56.983 12.7386C57.9375 12.7386 58.8182 12.9886 59.625 13.4886C60.4318 13.983 61.0767 14.7301 61.5597 15.7301C62.0426 16.7244 62.2841 17.9716 62.2841 19.4716C62.2841 20.9318 62.0483 22.1648 61.5767 23.1705C61.1108 24.1705 60.4744 24.929 59.6676 25.446C58.8665 25.9574 57.9688 26.2131 56.9744 26.2131C56.2699 26.2131 55.6705 26.0966 55.1761 25.8636C54.6875 25.6307 54.2869 25.3381 53.9744 24.9858C53.6619 24.6278 53.4233 24.267 53.2585 23.9034H53.0966V26H49.517ZM53.071 19.4545C53.071 20.233 53.179 20.9119 53.3949 21.4915C53.6108 22.071 53.9233 22.5227 54.3324 22.8466C54.7415 23.1648 55.2386 23.3239 55.8239 23.3239C56.4148 23.3239 56.9148 23.1619 57.3239 22.8381C57.733 22.5085 58.0426 22.054 58.2528 21.4744C58.4688 20.8892 58.5767 20.2159 58.5767 19.4545C58.5767 18.6989 58.4716 18.0341 58.2614 17.4602C58.0511 16.8864 57.7415 16.4375 57.3324 16.1136C56.9233 15.7898 56.4205 15.6278 55.8239 15.6278C55.233 15.6278 54.733 15.7841 54.3239 16.0966C53.9205 16.4091 53.6108 16.8523 53.3949 17.4261C53.179 18 53.071 18.6761 53.071 19.4545ZM70.6726 26.2557C69.326 26.2557 68.1669 25.983 67.1953 25.4375C66.2294 24.8864 65.4851 24.108 64.9624 23.1023C64.4396 22.0909 64.1783 20.8949 64.1783 19.5142C64.1783 18.1676 64.4396 16.9858 64.9624 15.9688C65.4851 14.9517 66.2209 14.1591 67.1697 13.5909C68.1243 13.0227 69.2436 12.7386 70.5277 12.7386C71.3913 12.7386 72.1953 12.8778 72.9396 13.1562C73.6896 13.429 74.343 13.8409 74.8999 14.392C75.4624 14.9432 75.8999 15.6364 76.2124 16.4716C76.5249 17.3011 76.6811 18.2727 76.6811 19.3864V20.3835H65.6271V18.1335H73.2635C73.2635 17.6108 73.1499 17.1477 72.9226 16.7443C72.6953 16.3409 72.38 16.0256 71.9766 15.7983C71.5788 15.5653 71.1158 15.4489 70.5874 15.4489C70.0362 15.4489 69.5476 15.5767 69.1214 15.8324C68.701 16.0824 68.3714 16.4205 68.1328 16.8466C67.8942 17.267 67.772 17.7358 67.7663 18.2528V20.392C67.7663 21.0398 67.8857 21.5994 68.1243 22.071C68.3686 22.5426 68.7124 22.9062 69.1555 23.1619C69.5987 23.4176 70.1243 23.5455 70.7322 23.5455C71.1357 23.5455 71.505 23.4886 71.8402 23.375C72.1754 23.2614 72.4624 23.0909 72.701 22.8636C72.9396 22.6364 73.1214 22.358 73.2464 22.0284L76.6044 22.25C76.4339 23.0568 76.0845 23.7614 75.5561 24.3636C75.0334 24.9602 74.3572 25.4261 73.5277 25.7614C72.7038 26.0909 71.7521 26.2557 70.6726 26.2557ZM83.8743 26.2131C82.88 26.2131 81.9794 25.9574 81.1726 25.446C80.3714 24.929 79.7351 24.1705 79.2635 23.1705C78.7976 22.1648 78.5646 20.9318 78.5646 19.4716C78.5646 17.9716 78.8061 16.7244 79.2891 15.7301C79.772 14.7301 80.4141 13.983 81.2152 13.4886C82.022 12.9886 82.9055 12.7386 83.8658 12.7386C84.5987 12.7386 85.2095 12.8636 85.6982 13.1136C86.1925 13.358 86.5902 13.6648 86.8913 14.0341C87.1982 14.3977 87.4311 14.7557 87.5902 15.108H87.701V8.54545H91.3232V26H87.7436V23.9034H87.5902C87.4197 24.267 87.1783 24.6278 86.8658 24.9858C86.5589 25.3381 86.1584 25.6307 85.6641 25.8636C85.1754 26.0966 84.5788 26.2131 83.8743 26.2131ZM85.0249 23.3239C85.6101 23.3239 86.1044 23.1648 86.5078 22.8466C86.9169 22.5227 87.2294 22.071 87.4453 21.4915C87.6669 20.9119 87.7777 20.233 87.7777 19.4545C87.7777 18.6761 87.6697 18 87.4538 17.4261C87.2379 16.8523 86.9254 16.4091 86.5163 16.0966C86.1072 15.7841 85.6101 15.6278 85.0249 15.6278C84.4283 15.6278 83.9254 15.7898 83.5163 16.1136C83.1072 16.4375 82.7976 16.8864 82.5874 17.4602C82.3771 18.0341 82.272 18.6989 82.272 19.4545C82.272 20.2159 82.3771 20.8892 82.5874 21.4744C82.8033 22.054 83.1129 22.5085 83.5163 22.8381C83.9254 23.1619 84.4283 23.3239 85.0249 23.3239ZM96.3793 8.54545V26H94.8622V8.54545H96.3793ZM100.411 26V12.9091H101.936V26H100.411ZM101.186 10.6591C100.874 10.6591 100.607 10.554 100.385 10.3438C100.163 10.1278 100.053 9.86932 100.053 9.56818C100.053 9.26705 100.163 9.01136 100.385 8.80114C100.607 8.58523 100.874 8.47727 101.186 8.47727C101.499 8.47727 101.766 8.58523 101.987 8.80114C102.209 9.01136 102.32 9.26705 102.32 9.56818C102.32 9.86932 102.209 10.1278 101.987 10.3438C101.766 10.554 101.499 10.6591 101.186 10.6591ZM107.465 17.8182V26H105.948V12.9091H107.423V14.9631H107.559C107.866 14.2926 108.343 13.7557 108.991 13.3523C109.644 12.9432 110.451 12.7386 111.411 12.7386C112.292 12.7386 113.065 12.9233 113.729 13.2926C114.4 13.6562 114.92 14.1932 115.289 14.9034C115.664 15.6136 115.852 16.4858 115.852 17.5199V26H114.335V17.6136C114.335 16.5398 114.033 15.6903 113.431 15.0653C112.835 14.4403 112.033 14.1278 111.028 14.1278C110.34 14.1278 109.729 14.2756 109.195 14.571C108.661 14.8665 108.238 15.2926 107.925 15.8494C107.619 16.4006 107.465 17.0568 107.465 17.8182ZM121.227 21.0568L121.21 19.071H121.551L127.688 12.9091H129.605L123.545 18.9773L123.409 19.0028L121.227 21.0568ZM119.847 26V8.54545H121.364V26H119.847ZM128.003 26L122.685 19.2756L123.776 18.2273L129.946 26H128.003Z" fill="white"/>
<defs>
<clipPath id="clip0_1423_75">
<rect width="21" height="25" fill="white" transform="translate(8 6)"/>
</clipPath>
</defs>
</svg>
