<svg width="586" height="375" viewBox="0 0 586 375" fill="none" xmlns="http://www.w3.org/2000/svg">
<rect width="586" height="375" fill="white"/>
<rect x="97" y="53" width="391" height="271" rx="14" fill="#E6EAF6"/>
<path d="M97 67C97 59.268 103.268 53 111 53H474C481.732 53 488 59.268 488 67V86H97V67Z" fill="#6F7E94"/>
<path d="M270.881 73V65.7273H271.719V68.4119H271.79C271.851 68.3172 271.937 68.1965 272.045 68.0497C272.157 67.9006 272.315 67.768 272.521 67.652C272.73 67.5336 273.011 67.4744 273.366 67.4744C273.826 67.4744 274.231 67.5893 274.581 67.8189C274.931 68.0485 275.205 68.3741 275.401 68.7955C275.598 69.2169 275.696 69.714 275.696 70.2869C275.696 70.8646 275.598 71.3653 275.401 71.7891C275.205 72.2105 274.933 72.5372 274.585 72.7692C274.237 72.9988 273.835 73.1136 273.381 73.1136C273.03 73.1136 272.75 73.0556 272.539 72.9396C272.328 72.8213 272.166 72.6875 272.053 72.5384C271.939 72.3868 271.851 72.2614 271.79 72.1619H271.69V73H270.881ZM271.705 70.2727C271.705 70.6847 271.765 71.0481 271.886 71.3629C272.006 71.6754 272.183 71.9205 272.415 72.098C272.647 72.2732 272.931 72.3608 273.267 72.3608C273.617 72.3608 273.91 72.2685 274.144 72.0838C274.381 71.8968 274.558 71.6458 274.677 71.331C274.798 71.0137 274.858 70.661 274.858 70.2727C274.858 69.8892 274.799 69.5436 274.68 69.2358C274.564 68.9257 274.388 68.6806 274.151 68.5007C273.917 68.3184 273.622 68.2273 273.267 68.2273C272.926 68.2273 272.64 68.3137 272.408 68.4865C272.176 68.657 272 68.8961 271.882 69.2038C271.764 69.5092 271.705 69.8655 271.705 70.2727ZM279.265 73.1136C278.739 73.1136 278.286 72.9976 277.905 72.7656C277.526 72.5312 277.234 72.2045 277.028 71.7855C276.824 71.3641 276.722 70.8741 276.722 70.3153C276.722 69.7566 276.824 69.2642 277.028 68.8381C277.234 68.4096 277.52 68.0758 277.887 67.8366C278.256 67.5952 278.687 67.4744 279.18 67.4744C279.464 67.4744 279.744 67.5218 280.021 67.6165C280.298 67.7112 280.55 67.8651 280.778 68.0781C281.005 68.2888 281.186 68.5682 281.321 68.9162C281.456 69.2642 281.523 69.6927 281.523 70.2017V70.5568H277.319V69.8324H280.671C280.671 69.5246 280.61 69.25 280.487 69.0085C280.366 68.767 280.193 68.5765 279.968 68.4368C279.746 68.2971 279.483 68.2273 279.18 68.2273C278.846 68.2273 278.557 68.3101 278.313 68.4759C278.072 68.6392 277.886 68.8523 277.756 69.1151C277.625 69.3778 277.56 69.6596 277.56 69.9602V70.4432C277.56 70.8551 277.631 71.2043 277.773 71.4908C277.918 71.7749 278.118 71.9915 278.374 72.1406C278.629 72.2874 278.926 72.3608 279.265 72.3608C279.485 72.3608 279.684 72.33 279.862 72.2685C280.041 72.2045 280.196 72.1098 280.327 71.9844C280.457 71.8565 280.558 71.6979 280.629 71.5085L281.438 71.7358C281.353 72.0104 281.21 72.2519 281.009 72.4602C280.807 72.6662 280.559 72.8272 280.263 72.9432C279.967 73.0568 279.634 73.1136 279.265 73.1136ZM284.858 73.1136C284.403 73.1136 284.002 72.9988 283.654 72.7692C283.306 72.5372 283.034 72.2105 282.837 71.7891C282.641 71.3653 282.543 70.8646 282.543 70.2869C282.543 69.714 282.641 69.2169 282.837 68.7955C283.034 68.3741 283.307 68.0485 283.658 67.8189C284.008 67.5893 284.413 67.4744 284.872 67.4744C285.227 67.4744 285.508 67.5336 285.714 67.652C285.922 67.768 286.081 67.9006 286.19 68.0497C286.301 68.1965 286.387 68.3172 286.449 68.4119H286.52V65.7273H287.358V73H286.548V72.1619H286.449C286.387 72.2614 286.3 72.3868 286.186 72.5384C286.072 72.6875 285.91 72.8213 285.7 72.9396C285.489 73.0556 285.208 73.1136 284.858 73.1136ZM284.972 72.3608C285.308 72.3608 285.592 72.2732 285.824 72.098C286.056 71.9205 286.232 71.6754 286.353 71.3629C286.474 71.0481 286.534 70.6847 286.534 70.2727C286.534 69.8655 286.475 69.5092 286.357 69.2038C286.238 68.8961 286.063 68.657 285.831 68.4865C285.599 68.3137 285.313 68.2273 284.972 68.2273C284.616 68.2273 284.321 68.3184 284.084 68.5007C283.849 68.6806 283.673 68.9257 283.555 69.2358C283.439 69.5436 283.381 69.8892 283.381 70.2727C283.381 70.661 283.44 71.0137 283.558 71.331C283.679 71.6458 283.857 71.8968 284.091 72.0838C284.328 72.2685 284.621 72.3608 284.972 72.3608ZM289.847 65.7273V73H289.009V65.7273H289.847ZM291.382 73V67.5455H292.22V73H291.382ZM291.808 66.6364C291.645 66.6364 291.504 66.5807 291.386 66.4695C291.27 66.3582 291.212 66.2244 291.212 66.0682C291.212 65.9119 291.27 65.7782 291.386 65.6669C291.504 65.5556 291.645 65.5 291.808 65.5C291.972 65.5 292.111 65.5556 292.227 65.6669C292.346 65.7782 292.405 65.9119 292.405 66.0682C292.405 66.2244 292.346 66.3582 292.227 66.4695C292.111 66.5807 291.972 66.6364 291.808 66.6364ZM294.593 69.7188V73H293.755V67.5455H294.565V68.3977H294.636C294.764 68.1207 294.958 67.8982 295.218 67.7301C295.479 67.5597 295.815 67.4744 296.227 67.4744C296.596 67.4744 296.919 67.5502 297.196 67.7017C297.473 67.8509 297.689 68.0781 297.843 68.3835C297.997 68.6866 298.074 69.0701 298.074 69.5341V73H297.235V69.5909C297.235 69.1624 297.124 68.8286 296.902 68.5895C296.679 68.348 296.374 68.2273 295.985 68.2273C295.718 68.2273 295.479 68.2853 295.268 68.4013C295.06 68.5173 294.895 68.6866 294.775 68.9091C294.654 69.1316 294.593 69.4015 294.593 69.7188ZM300.386 71.0114L300.372 69.9744H300.542L302.929 67.5455H303.966L301.423 70.1165H301.352L300.386 71.0114ZM299.605 73V65.7273H300.443V73H299.605ZM303.071 73L300.94 70.3011L301.537 69.7188L304.136 73H303.071ZM305.655 73.0568C305.48 73.0568 305.33 72.9941 305.204 72.8686C305.079 72.7431 305.016 72.5928 305.016 72.4176C305.016 72.2424 305.079 72.0921 305.204 71.9666C305.33 71.8411 305.48 71.7784 305.655 71.7784C305.83 71.7784 305.981 71.8411 306.106 71.9666C306.232 72.0921 306.294 72.2424 306.294 72.4176C306.294 72.5336 306.265 72.6402 306.206 72.7372C306.149 72.8343 306.072 72.9124 305.975 72.9716C305.88 73.0284 305.774 73.0568 305.655 73.0568ZM307.798 73V67.5455H308.636V73H307.798ZM308.224 66.6364C308.061 66.6364 307.92 66.5807 307.802 66.4695C307.686 66.3582 307.628 66.2244 307.628 66.0682C307.628 65.9119 307.686 65.7782 307.802 65.6669C307.92 65.5556 308.061 65.5 308.224 65.5C308.388 65.5 308.527 65.5556 308.643 65.6669C308.762 65.7782 308.821 65.9119 308.821 66.0682C308.821 66.2244 308.762 66.3582 308.643 66.4695C308.527 66.5807 308.388 66.6364 308.224 66.6364ZM312.231 73.1136C311.776 73.1136 311.375 72.9988 311.027 72.7692C310.679 72.5372 310.407 72.2105 310.21 71.7891C310.014 71.3653 309.916 70.8646 309.916 70.2869C309.916 69.714 310.014 69.2169 310.21 68.7955C310.407 68.3741 310.68 68.0485 311.031 67.8189C311.381 67.5893 311.786 67.4744 312.245 67.4744C312.6 67.4744 312.881 67.5336 313.087 67.652C313.295 67.768 313.454 67.9006 313.563 68.0497C313.674 68.1965 313.76 68.3172 313.822 68.4119H313.893V65.7273H314.731V73H313.921V72.1619H313.822C313.76 72.2614 313.673 72.3868 313.559 72.5384C313.445 72.6875 313.283 72.8213 313.073 72.9396C312.862 73.0556 312.581 73.1136 312.231 73.1136ZM312.345 72.3608C312.681 72.3608 312.965 72.2732 313.197 72.098C313.429 71.9205 313.605 71.6754 313.726 71.3629C313.847 71.0481 313.907 70.6847 313.907 70.2727C313.907 69.8655 313.848 69.5092 313.73 69.2038C313.611 68.8961 313.436 68.657 313.204 68.4865C312.972 68.3137 312.686 68.2273 312.345 68.2273C311.99 68.2273 311.694 68.3184 311.457 68.5007C311.222 68.6806 311.046 68.9257 310.928 69.2358C310.812 69.5436 310.754 69.8892 310.754 70.2727C310.754 70.661 310.813 71.0137 310.931 71.331C311.052 71.6458 311.23 71.8968 311.464 72.0838C311.701 72.2685 311.994 72.3608 312.345 72.3608Z" fill="#E5E9F5"/>
<circle cx="114" cy="69" r="4" fill="#FD8265"/>
<circle cx="138" cy="69" r="4" fill="#98D8B5"/>
<circle cx="126" cy="69" r="4" fill="#FBCE2E"/>
<g filter="url(#filter0_d_1498_489)">
<rect x="66" y="107" width="217" height="193" rx="15" fill="white"/>
</g>
<g filter="url(#filter1_d_1498_489)">
<rect x="303" y="107" width="217" height="193" rx="15" fill="white"/>
</g>
<path d="M383.757 215.333V174.762H377V168H387.136C389.001 168 390.514 169.514 390.514 171.381V211.952H432.537L439.294 184.905H397.271V178.143H443.621C445.487 178.143 447 179.657 447 181.524C447 181.8 446.966 182.076 446.899 182.344L438.453 216.153C438.077 217.658 436.726 218.714 435.175 218.714H387.136C385.27 218.714 383.757 217.201 383.757 215.333ZM390.514 239C386.782 239 383.757 235.973 383.757 232.238C383.757 228.503 386.782 225.476 390.514 225.476C394.246 225.476 397.271 228.503 397.271 232.238C397.271 235.973 394.246 239 390.514 239ZM431.056 239C427.324 239 424.299 235.973 424.299 232.238C424.299 228.503 427.324 225.476 431.056 225.476C434.788 225.476 437.813 228.503 437.813 232.238C437.813 235.973 434.788 239 431.056 239Z" fill="#E5E5E5"/>
<path d="M170.344 165.963L207.879 171.326L213.242 208.861L178.387 243.716C176.906 245.197 174.506 245.197 173.025 243.716L135.489 206.18C134.009 204.699 134.009 202.299 135.489 200.818L170.344 165.963ZM173.025 174.007L143.533 203.499L175.706 235.672L205.198 206.18L201.177 178.028L173.025 174.007ZM181.069 198.137C178.107 195.175 178.107 190.374 181.069 187.412C184.03 184.451 188.831 184.451 191.793 187.412C194.754 190.374 194.754 195.175 191.793 198.137C188.831 201.098 184.03 201.098 181.069 198.137Z" fill="#E5E5E5"/>
<defs>
<filter id="filter0_d_1498_489" x="45.4" y="86.4" width="258.2" height="234.2" filterUnits="userSpaceOnUse" color-interpolation-filters="sRGB">
<feFlood flood-opacity="0" result="BackgroundImageFix"/>
<feColorMatrix in="SourceAlpha" type="matrix" values="0 0 0 0 0 0 0 0 0 0 0 0 0 0 0 0 0 0 127 0" result="hardAlpha"/>
<feMorphology radius="9" operator="erode" in="SourceAlpha" result="effect1_dropShadow_1498_489"/>
<feOffset/>
<feGaussianBlur stdDeviation="14.8"/>
<feComposite in2="hardAlpha" operator="out"/>
<feColorMatrix type="matrix" values="0 0 0 0 0 0 0 0 0 0 0 0 0 0 0 0 0 0 0.25 0"/>
<feBlend mode="normal" in2="BackgroundImageFix" result="effect1_dropShadow_1498_489"/>
<feBlend mode="normal" in="SourceGraphic" in2="effect1_dropShadow_1498_489" result="shape"/>
</filter>
<filter id="filter1_d_1498_489" x="282.4" y="86.4" width="258.2" height="234.2" filterUnits="userSpaceOnUse" color-interpolation-filters="sRGB">
<feFlood flood-opacity="0" result="BackgroundImageFix"/>
<feColorMatrix in="SourceAlpha" type="matrix" values="0 0 0 0 0 0 0 0 0 0 0 0 0 0 0 0 0 0 127 0" result="hardAlpha"/>
<feMorphology radius="9" operator="erode" in="SourceAlpha" result="effect1_dropShadow_1498_489"/>
<feOffset/>
<feGaussianBlur stdDeviation="14.8"/>
<feComposite in2="hardAlpha" operator="out"/>
<feColorMatrix type="matrix" values="0 0 0 0 0 0 0 0 0 0 0 0 0 0 0 0 0 0 0.25 0"/>
<feBlend mode="normal" in2="BackgroundImageFix" result="effect1_dropShadow_1498_489"/>
<feBlend mode="normal" in="SourceGraphic" in2="effect1_dropShadow_1498_489" result="shape"/>
</filter>
</defs>
</svg>
