<svg width="586" height="375" viewBox="0 0 586 375" fill="none" xmlns="http://www.w3.org/2000/svg">
<rect width="586" height="375" fill="white"/>
<rect x="97" y="53" width="391" height="271" rx="14" fill="#E6EAF6"/>
<path d="M97 67C97 59.268 103.268 53 111 53H474C481.732 53 488 59.268 488 67V86H97V67Z" fill="#6F7E94"/>
<path d="M270.881 73V65.7273H271.719V68.4119H271.79C271.851 68.3172 271.937 68.1965 272.045 68.0497C272.157 67.9006 272.315 67.768 272.521 67.652C272.73 67.5336 273.011 67.4744 273.366 67.4744C273.826 67.4744 274.231 67.5893 274.581 67.8189C274.931 68.0485 275.205 68.3741 275.401 68.7955C275.598 69.2169 275.696 69.714 275.696 70.2869C275.696 70.8646 275.598 71.3653 275.401 71.7891C275.205 72.2105 274.933 72.5372 274.585 72.7692C274.237 72.9988 273.835 73.1136 273.381 73.1136C273.03 73.1136 272.75 73.0556 272.539 72.9396C272.328 72.8213 272.166 72.6875 272.053 72.5384C271.939 72.3868 271.851 72.2614 271.79 72.1619H271.69V73H270.881ZM271.705 70.2727C271.705 70.6847 271.765 71.0481 271.886 71.3629C272.006 71.6754 272.183 71.9205 272.415 72.098C272.647 72.2732 272.931 72.3608 273.267 72.3608C273.617 72.3608 273.91 72.2685 274.144 72.0838C274.381 71.8968 274.558 71.6458 274.677 71.331C274.798 71.0137 274.858 70.661 274.858 70.2727C274.858 69.8892 274.799 69.5436 274.68 69.2358C274.564 68.9257 274.388 68.6806 274.151 68.5007C273.917 68.3184 273.622 68.2273 273.267 68.2273C272.926 68.2273 272.64 68.3137 272.408 68.4865C272.176 68.657 272 68.8961 271.882 69.2038C271.764 69.5092 271.705 69.8655 271.705 70.2727ZM279.265 73.1136C278.739 73.1136 278.286 72.9976 277.905 72.7656C277.526 72.5312 277.234 72.2045 277.028 71.7855C276.824 71.3641 276.722 70.8741 276.722 70.3153C276.722 69.7566 276.824 69.2642 277.028 68.8381C277.234 68.4096 277.52 68.0758 277.887 67.8366C278.256 67.5952 278.687 67.4744 279.18 67.4744C279.464 67.4744 279.744 67.5218 280.021 67.6165C280.298 67.7112 280.55 67.8651 280.778 68.0781C281.005 68.2888 281.186 68.5682 281.321 68.9162C281.456 69.2642 281.523 69.6927 281.523 70.2017V70.5568H277.319V69.8324H280.671C280.671 69.5246 280.61 69.25 280.487 69.0085C280.366 68.767 280.193 68.5765 279.968 68.4368C279.746 68.2971 279.483 68.2273 279.18 68.2273C278.846 68.2273 278.557 68.3101 278.313 68.4759C278.072 68.6392 277.886 68.8523 277.756 69.1151C277.625 69.3778 277.56 69.6596 277.56 69.9602V70.4432C277.56 70.8551 277.631 71.2043 277.773 71.4908C277.918 71.7749 278.118 71.9915 278.374 72.1406C278.629 72.2874 278.926 72.3608 279.265 72.3608C279.485 72.3608 279.684 72.33 279.862 72.2685C280.041 72.2045 280.196 72.1098 280.327 71.9844C280.457 71.8565 280.558 71.6979 280.629 71.5085L281.438 71.7358C281.353 72.0104 281.21 72.2519 281.009 72.4602C280.807 72.6662 280.559 72.8272 280.263 72.9432C279.967 73.0568 279.634 73.1136 279.265 73.1136ZM284.858 73.1136C284.403 73.1136 284.002 72.9988 283.654 72.7692C283.306 72.5372 283.034 72.2105 282.837 71.7891C282.641 71.3653 282.543 70.8646 282.543 70.2869C282.543 69.714 282.641 69.2169 282.837 68.7955C283.034 68.3741 283.307 68.0485 283.658 67.8189C284.008 67.5893 284.413 67.4744 284.872 67.4744C285.227 67.4744 285.508 67.5336 285.714 67.652C285.922 67.768 286.081 67.9006 286.19 68.0497C286.301 68.1965 286.387 68.3172 286.449 68.4119H286.52V65.7273H287.358V73H286.548V72.1619H286.449C286.387 72.2614 286.3 72.3868 286.186 72.5384C286.072 72.6875 285.91 72.8213 285.7 72.9396C285.489 73.0556 285.208 73.1136 284.858 73.1136ZM284.972 72.3608C285.308 72.3608 285.592 72.2732 285.824 72.098C286.056 71.9205 286.232 71.6754 286.353 71.3629C286.474 71.0481 286.534 70.6847 286.534 70.2727C286.534 69.8655 286.475 69.5092 286.357 69.2038C286.238 68.8961 286.063 68.657 285.831 68.4865C285.599 68.3137 285.313 68.2273 284.972 68.2273C284.616 68.2273 284.321 68.3184 284.084 68.5007C283.849 68.6806 283.673 68.9257 283.555 69.2358C283.439 69.5436 283.381 69.8892 283.381 70.2727C283.381 70.661 283.44 71.0137 283.558 71.331C283.679 71.6458 283.857 71.8968 284.091 72.0838C284.328 72.2685 284.621 72.3608 284.972 72.3608ZM289.847 65.7273V73H289.009V65.7273H289.847ZM291.382 73V67.5455H292.22V73H291.382ZM291.808 66.6364C291.645 66.6364 291.504 66.5807 291.386 66.4695C291.27 66.3582 291.212 66.2244 291.212 66.0682C291.212 65.9119 291.27 65.7782 291.386 65.6669C291.504 65.5556 291.645 65.5 291.808 65.5C291.972 65.5 292.111 65.5556 292.227 65.6669C292.346 65.7782 292.405 65.9119 292.405 66.0682C292.405 66.2244 292.346 66.3582 292.227 66.4695C292.111 66.5807 291.972 66.6364 291.808 66.6364ZM294.593 69.7188V73H293.755V67.5455H294.565V68.3977H294.636C294.764 68.1207 294.958 67.8982 295.218 67.7301C295.479 67.5597 295.815 67.4744 296.227 67.4744C296.596 67.4744 296.919 67.5502 297.196 67.7017C297.473 67.8509 297.689 68.0781 297.843 68.3835C297.997 68.6866 298.074 69.0701 298.074 69.5341V73H297.235V69.5909C297.235 69.1624 297.124 68.8286 296.902 68.5895C296.679 68.348 296.374 68.2273 295.985 68.2273C295.718 68.2273 295.479 68.2853 295.268 68.4013C295.06 68.5173 294.895 68.6866 294.775 68.9091C294.654 69.1316 294.593 69.4015 294.593 69.7188ZM300.386 71.0114L300.372 69.9744H300.542L302.929 67.5455H303.966L301.423 70.1165H301.352L300.386 71.0114ZM299.605 73V65.7273H300.443V73H299.605ZM303.071 73L300.94 70.3011L301.537 69.7188L304.136 73H303.071ZM305.655 73.0568C305.48 73.0568 305.33 72.9941 305.204 72.8686C305.079 72.7431 305.016 72.5928 305.016 72.4176C305.016 72.2424 305.079 72.0921 305.204 71.9666C305.33 71.8411 305.48 71.7784 305.655 71.7784C305.83 71.7784 305.981 71.8411 306.106 71.9666C306.232 72.0921 306.294 72.2424 306.294 72.4176C306.294 72.5336 306.265 72.6402 306.206 72.7372C306.149 72.8343 306.072 72.9124 305.975 72.9716C305.88 73.0284 305.774 73.0568 305.655 73.0568ZM307.798 73V67.5455H308.636V73H307.798ZM308.224 66.6364C308.061 66.6364 307.92 66.5807 307.802 66.4695C307.686 66.3582 307.628 66.2244 307.628 66.0682C307.628 65.9119 307.686 65.7782 307.802 65.6669C307.92 65.5556 308.061 65.5 308.224 65.5C308.388 65.5 308.527 65.5556 308.643 65.6669C308.762 65.7782 308.821 65.9119 308.821 66.0682C308.821 66.2244 308.762 66.3582 308.643 66.4695C308.527 66.5807 308.388 66.6364 308.224 66.6364ZM312.231 73.1136C311.776 73.1136 311.375 72.9988 311.027 72.7692C310.679 72.5372 310.407 72.2105 310.21 71.7891C310.014 71.3653 309.916 70.8646 309.916 70.2869C309.916 69.714 310.014 69.2169 310.21 68.7955C310.407 68.3741 310.68 68.0485 311.031 67.8189C311.381 67.5893 311.786 67.4744 312.245 67.4744C312.6 67.4744 312.881 67.5336 313.087 67.652C313.295 67.768 313.454 67.9006 313.563 68.0497C313.674 68.1965 313.76 68.3172 313.822 68.4119H313.893V65.7273H314.731V73H313.921V72.1619H313.822C313.76 72.2614 313.673 72.3868 313.559 72.5384C313.445 72.6875 313.283 72.8213 313.073 72.9396C312.862 73.0556 312.581 73.1136 312.231 73.1136ZM312.345 72.3608C312.681 72.3608 312.965 72.2732 313.197 72.098C313.429 71.9205 313.605 71.6754 313.726 71.3629C313.847 71.0481 313.907 70.6847 313.907 70.2727C313.907 69.8655 313.848 69.5092 313.73 69.2038C313.611 68.8961 313.436 68.657 313.204 68.4865C312.972 68.3137 312.686 68.2273 312.345 68.2273C311.99 68.2273 311.694 68.3184 311.457 68.5007C311.222 68.6806 311.046 68.9257 310.928 69.2358C310.812 69.5436 310.754 69.8892 310.754 70.2727C310.754 70.661 310.813 71.0137 310.931 71.331C311.052 71.6458 311.23 71.8968 311.464 72.0838C311.701 72.2685 311.994 72.3608 312.345 72.3608Z" fill="#E5E9F5"/>
<circle cx="114" cy="69" r="4" fill="#FD8265"/>
<circle cx="138" cy="69" r="4" fill="#98D8B5"/>
<circle cx="126" cy="69" r="4" fill="#FBCE2E"/>
<g filter="url(#filter0_d_1498_488)">
<rect x="63" y="107" width="460" height="193" rx="15" fill="white"/>
</g>
<path d="M77 129C77 124.029 81.0294 120 86 120H201C205.971 120 210 124.029 210 129V300H77V129Z" fill="#F7F7F7"/>
<rect x="88.7617" y="223.399" width="109.482" height="19.4634" rx="9.73171" fill="#F1F1F1"/>
<rect x="90.7891" y="225.021" width="15.814" height="15.814" rx="7.90701" fill="white"/>
<g clip-path="url(#clip0_1498_488)">
<path d="M98.2009 231.902C97.5552 231.902 97.0321 232.425 97.0321 233.071C97.0321 233.717 97.5554 234.24 98.2009 234.24C98.8467 234.24 99.3698 233.716 99.3698 233.071C99.3698 232.425 98.8465 231.902 98.2009 231.902ZM98.2009 231.123C99.2765 231.123 100.149 231.994 100.149 233.071C100.149 234.146 99.2774 235.019 98.2009 235.019C97.1254 235.019 96.2528 234.147 96.2528 233.071C96.2528 231.995 97.1244 231.123 98.2009 231.123ZM100.734 231.025C100.734 231.294 100.515 231.512 100.246 231.512C99.9776 231.512 99.7594 231.293 99.7594 231.025C99.7594 230.756 99.9779 230.538 100.246 230.538C100.515 230.538 100.734 230.756 100.734 231.025ZM98.2009 229.954C97.2368 229.954 97.0797 229.956 96.6312 229.976C96.3257 229.991 96.1209 230.032 95.9307 230.106C95.7616 230.171 95.6396 230.25 95.5096 230.379C95.3792 230.51 95.301 230.632 95.2357 230.801C95.1616 230.992 95.1205 231.196 95.1065 231.501C95.0863 231.931 95.0839 232.082 95.0839 233.071C95.0839 234.035 95.0865 234.192 95.1065 234.64C95.1208 234.946 95.1619 235.151 95.2356 235.341C95.3014 235.51 95.3799 235.632 95.5092 235.762C95.6402 235.893 95.7622 235.971 95.9298 236.036C96.1224 236.11 96.327 236.151 96.6312 236.165C97.0614 236.185 97.2117 236.188 98.2009 236.188C99.1651 236.188 99.3222 236.185 99.7706 236.165C100.075 236.151 100.281 236.11 100.471 236.036C100.64 235.971 100.762 235.892 100.892 235.763C101.023 235.631 101.101 235.51 101.166 235.342C101.24 235.15 101.281 234.945 101.295 234.641C101.316 234.21 101.318 234.06 101.318 233.071C101.318 232.107 101.315 231.95 101.295 231.501C101.281 231.196 101.24 230.991 101.166 230.801C101.101 230.632 101.022 230.51 100.892 230.379C100.762 230.249 100.64 230.171 100.471 230.106C100.28 230.032 100.076 229.99 99.7707 229.976C99.3405 229.956 99.1902 229.954 98.2009 229.954ZM98.2009 229.175C99.2594 229.175 99.3916 229.178 99.8072 229.198C100.222 229.217 100.505 229.283 100.753 229.379C101.01 229.478 101.227 229.612 101.443 229.828C101.659 230.045 101.793 230.263 101.893 230.519C101.989 230.767 102.054 231.05 102.074 231.465C102.092 231.88 102.097 232.012 102.097 233.071C102.097 234.129 102.093 234.261 102.074 234.677C102.055 235.092 101.989 235.374 101.893 235.623C101.794 235.88 101.659 236.097 101.443 236.313C101.227 236.529 101.009 236.663 100.753 236.763C100.505 236.859 100.222 236.924 99.8072 236.944C99.3916 236.962 99.2594 236.967 98.2009 236.967C97.1425 236.967 97.0103 236.963 96.5947 236.944C96.1801 236.925 95.8976 236.859 95.6489 236.763C95.3924 236.663 95.1752 236.529 94.9586 236.313C94.742 236.097 94.6086 235.879 94.5092 235.623C94.4128 235.374 94.3475 235.092 94.3281 234.677C94.3096 234.261 94.3047 234.129 94.3047 233.071C94.3047 232.012 94.3086 231.88 94.3281 231.465C94.3472 231.05 94.4128 230.767 94.5092 230.519C94.6083 230.262 94.742 230.045 94.9586 229.828C95.1752 229.612 95.3927 229.478 95.6489 229.379C95.8973 229.283 96.1798 229.217 96.5947 229.198C97.0103 229.179 97.1425 229.175 98.2009 229.175Z" fill="#196ECD"/>
</g>
<rect x="90.7891" y="225.021" width="15.814" height="15.814" rx="7.90701" fill="white"/>
<rect x="88.7617" y="247.323" width="109.482" height="19.4634" rx="9.73171" fill="#F1F1F1"/>
<rect x="90.7891" y="248.945" width="15.814" height="15.814" rx="7.90701" fill="white"/>
<rect x="88.7617" y="270.841" width="109.482" height="19.4634" rx="9.73171" fill="#F1F1F1"/>
<rect x="90.7891" y="272.463" width="15.814" height="15.814" rx="7.90701" fill="white"/>
<path d="M77 129C77 124.029 81.0294 120 86 120H201C205.971 120 210 124.029 210 129V200.692H77V129Z" fill="#E5E5E5"/>
<rect x="179.59" y="135.409" width="19.0579" height="19.0579" rx="9.52896" fill="#F1F1F1"/>
<circle cx="98.084" cy="144.735" r="9.32622" fill="#F1F1F1"/>
<rect x="122.414" y="166.226" width="42.5762" height="8.51524" rx="4.25762" fill="#F1F1F1"/>
<rect x="103.762" y="180.012" width="79.8811" height="8.51524" rx="4.25762" fill="#F1F1F1"/>
<rect x="103.762" y="207.991" width="79.8811" height="8.51524" rx="4.25762" fill="#F1F1F1"/>
<path d="M223 129C223 124.029 227.029 120 232 120H347C351.971 120 356 124.029 356 129V300H223V129Z" fill="#F7F7F7"/>
<rect x="234.762" y="223.399" width="109.482" height="19.4634" rx="9.73171" fill="#F1F1F1"/>
<rect x="236.789" y="225.021" width="15.814" height="15.814" rx="7.90701" fill="white"/>
<g clip-path="url(#clip1_1498_488)">
<path d="M244.201 231.902C243.555 231.902 243.032 232.425 243.032 233.071C243.032 233.717 243.555 234.24 244.201 234.24C244.847 234.24 245.37 233.716 245.37 233.071C245.37 232.425 244.847 231.902 244.201 231.902ZM244.201 231.123C245.276 231.123 246.149 231.994 246.149 233.071C246.149 234.146 245.277 235.019 244.201 235.019C243.125 235.019 242.253 234.147 242.253 233.071C242.253 231.995 243.124 231.123 244.201 231.123ZM246.734 231.025C246.734 231.294 246.515 231.512 246.246 231.512C245.978 231.512 245.759 231.293 245.759 231.025C245.759 230.756 245.978 230.538 246.246 230.538C246.515 230.538 246.734 230.756 246.734 231.025ZM244.201 229.954C243.237 229.954 243.08 229.956 242.631 229.976C242.326 229.991 242.121 230.032 241.931 230.106C241.762 230.171 241.64 230.25 241.51 230.379C241.379 230.51 241.301 230.632 241.236 230.801C241.162 230.992 241.121 231.196 241.106 231.501C241.086 231.931 241.084 232.082 241.084 233.071C241.084 234.035 241.086 234.192 241.106 234.64C241.121 234.946 241.162 235.151 241.236 235.341C241.301 235.51 241.38 235.632 241.509 235.762C241.64 235.893 241.762 235.971 241.93 236.036C242.122 236.11 242.327 236.151 242.631 236.165C243.061 236.185 243.212 236.188 244.201 236.188C245.165 236.188 245.322 236.185 245.771 236.165C246.075 236.151 246.281 236.11 246.471 236.036C246.64 235.971 246.762 235.892 246.892 235.763C247.023 235.631 247.101 235.51 247.166 235.342C247.24 235.15 247.281 234.945 247.295 234.641C247.316 234.21 247.318 234.06 247.318 233.071C247.318 232.107 247.315 231.95 247.295 231.501C247.281 231.196 247.24 230.991 247.166 230.801C247.101 230.632 247.022 230.51 246.892 230.379C246.762 230.249 246.64 230.171 246.471 230.106C246.28 230.032 246.076 229.99 245.771 229.976C245.341 229.956 245.19 229.954 244.201 229.954ZM244.201 229.175C245.259 229.175 245.392 229.178 245.807 229.198C246.222 229.217 246.505 229.283 246.753 229.379C247.01 229.478 247.227 229.612 247.443 229.828C247.659 230.045 247.793 230.263 247.893 230.519C247.989 230.767 248.054 231.05 248.074 231.465C248.092 231.88 248.097 232.012 248.097 233.071C248.097 234.129 248.093 234.261 248.074 234.677C248.055 235.092 247.989 235.374 247.893 235.623C247.794 235.88 247.659 236.097 247.443 236.313C247.227 236.529 247.009 236.663 246.753 236.763C246.505 236.859 246.222 236.924 245.807 236.944C245.392 236.962 245.259 236.967 244.201 236.967C243.142 236.967 243.01 236.963 242.595 236.944C242.18 236.925 241.898 236.859 241.649 236.763C241.392 236.663 241.175 236.529 240.959 236.313C240.742 236.097 240.609 235.879 240.509 235.623C240.413 235.374 240.348 235.092 240.328 234.677C240.31 234.261 240.305 234.129 240.305 233.071C240.305 232.012 240.309 231.88 240.328 231.465C240.347 231.05 240.413 230.767 240.509 230.519C240.608 230.262 240.742 230.045 240.959 229.828C241.175 229.612 241.393 229.478 241.649 229.379C241.897 229.283 242.18 229.217 242.595 229.198C243.01 229.179 243.142 229.175 244.201 229.175Z" fill="#196ECD"/>
</g>
<rect x="236.789" y="225.021" width="15.814" height="15.814" rx="7.90701" fill="white"/>
<rect x="234.762" y="247.323" width="109.482" height="19.4634" rx="9.73171" fill="#F1F1F1"/>
<rect x="236.789" y="248.945" width="15.814" height="15.814" rx="7.90701" fill="white"/>
<rect x="234.762" y="270.841" width="109.482" height="19.4634" rx="9.73171" fill="#F1F1F1"/>
<rect x="236.789" y="272.463" width="15.814" height="15.814" rx="7.90701" fill="white"/>
<path d="M223 129C223 124.029 227.029 120 232 120H347C351.971 120 356 124.029 356 129V200.692H223V129Z" fill="#E5E5E5"/>
<rect x="325.59" y="135.409" width="19.0579" height="19.0579" rx="9.52896" fill="#F1F1F1"/>
<circle cx="244.084" cy="144.735" r="9.32622" fill="#F1F1F1"/>
<rect x="268.414" y="166.226" width="42.5762" height="8.51524" rx="4.25762" fill="#F1F1F1"/>
<rect x="249.762" y="180.012" width="79.8811" height="8.51524" rx="4.25762" fill="#F1F1F1"/>
<rect x="249.762" y="207.991" width="79.8811" height="8.51524" rx="4.25762" fill="#F1F1F1"/>
<path d="M369 129C369 124.029 373.029 120 378 120H493C497.971 120 502 124.029 502 129V300H369V129Z" fill="#F7F7F7"/>
<rect x="380.762" y="223.399" width="109.482" height="19.4634" rx="9.73171" fill="#F1F1F1"/>
<rect x="382.789" y="225.021" width="15.814" height="15.814" rx="7.90701" fill="white"/>
<g clip-path="url(#clip2_1498_488)">
<path d="M390.201 231.902C389.555 231.902 389.032 232.425 389.032 233.071C389.032 233.717 389.555 234.24 390.201 234.24C390.847 234.24 391.37 233.716 391.37 233.071C391.37 232.425 390.847 231.902 390.201 231.902ZM390.201 231.123C391.276 231.123 392.149 231.994 392.149 233.071C392.149 234.146 391.277 235.019 390.201 235.019C389.125 235.019 388.253 234.147 388.253 233.071C388.253 231.995 389.124 231.123 390.201 231.123ZM392.734 231.025C392.734 231.294 392.515 231.512 392.246 231.512C391.978 231.512 391.759 231.293 391.759 231.025C391.759 230.756 391.978 230.538 392.246 230.538C392.515 230.538 392.734 230.756 392.734 231.025ZM390.201 229.954C389.237 229.954 389.08 229.956 388.631 229.976C388.326 229.991 388.121 230.032 387.931 230.106C387.762 230.171 387.64 230.25 387.51 230.379C387.379 230.51 387.301 230.632 387.236 230.801C387.162 230.992 387.121 231.196 387.106 231.501C387.086 231.931 387.084 232.082 387.084 233.071C387.084 234.035 387.086 234.192 387.106 234.64C387.121 234.946 387.162 235.151 387.236 235.341C387.301 235.51 387.38 235.632 387.509 235.762C387.64 235.893 387.762 235.971 387.93 236.036C388.122 236.11 388.327 236.151 388.631 236.165C389.061 236.185 389.212 236.188 390.201 236.188C391.165 236.188 391.322 236.185 391.771 236.165C392.075 236.151 392.281 236.11 392.471 236.036C392.64 235.971 392.762 235.892 392.892 235.763C393.023 235.631 393.101 235.51 393.166 235.342C393.24 235.15 393.281 234.945 393.295 234.641C393.316 234.21 393.318 234.06 393.318 233.071C393.318 232.107 393.315 231.95 393.295 231.501C393.281 231.196 393.24 230.991 393.166 230.801C393.101 230.632 393.022 230.51 392.892 230.379C392.762 230.249 392.64 230.171 392.471 230.106C392.28 230.032 392.076 229.99 391.771 229.976C391.341 229.956 391.19 229.954 390.201 229.954ZM390.201 229.175C391.259 229.175 391.392 229.178 391.807 229.198C392.222 229.217 392.505 229.283 392.753 229.379C393.01 229.478 393.227 229.612 393.443 229.828C393.659 230.045 393.793 230.263 393.893 230.519C393.989 230.767 394.054 231.05 394.074 231.465C394.092 231.88 394.097 232.012 394.097 233.071C394.097 234.129 394.093 234.261 394.074 234.677C394.055 235.092 393.989 235.374 393.893 235.623C393.794 235.88 393.659 236.097 393.443 236.313C393.227 236.529 393.009 236.663 392.753 236.763C392.505 236.859 392.222 236.924 391.807 236.944C391.392 236.962 391.259 236.967 390.201 236.967C389.142 236.967 389.01 236.963 388.595 236.944C388.18 236.925 387.898 236.859 387.649 236.763C387.392 236.663 387.175 236.529 386.959 236.313C386.742 236.097 386.609 235.879 386.509 235.623C386.413 235.374 386.348 235.092 386.328 234.677C386.31 234.261 386.305 234.129 386.305 233.071C386.305 232.012 386.309 231.88 386.328 231.465C386.347 231.05 386.413 230.767 386.509 230.519C386.608 230.262 386.742 230.045 386.959 229.828C387.175 229.612 387.393 229.478 387.649 229.379C387.897 229.283 388.18 229.217 388.595 229.198C389.01 229.179 389.142 229.175 390.201 229.175Z" fill="#196ECD"/>
</g>
<rect x="382.789" y="225.021" width="15.814" height="15.814" rx="7.90701" fill="white"/>
<rect x="380.762" y="247.323" width="109.482" height="19.4634" rx="9.73171" fill="#F1F1F1"/>
<rect x="382.789" y="248.945" width="15.814" height="15.814" rx="7.90701" fill="white"/>
<rect x="380.762" y="270.841" width="109.482" height="19.4634" rx="9.73171" fill="#F1F1F1"/>
<rect x="382.789" y="272.463" width="15.814" height="15.814" rx="7.90701" fill="white"/>
<path d="M369 129C369 124.029 373.029 120 378 120H493C497.971 120 502 124.029 502 129V200.692H369V129Z" fill="#E5E5E5"/>
<rect x="471.59" y="135.409" width="19.0579" height="19.0579" rx="9.52896" fill="#F1F1F1"/>
<circle cx="390.084" cy="144.735" r="9.32622" fill="#F1F1F1"/>
<rect x="414.414" y="166.226" width="42.5762" height="8.51524" rx="4.25762" fill="#F1F1F1"/>
<rect x="395.762" y="180.012" width="79.8811" height="8.51524" rx="4.25762" fill="#F1F1F1"/>
<rect x="395.762" y="207.991" width="79.8811" height="8.51524" rx="4.25762" fill="#F1F1F1"/>
<defs>
<filter id="filter0_d_1498_488" x="42.4" y="86.4" width="501.2" height="234.2" filterUnits="userSpaceOnUse" color-interpolation-filters="sRGB">
<feFlood flood-opacity="0" result="BackgroundImageFix"/>
<feColorMatrix in="SourceAlpha" type="matrix" values="0 0 0 0 0 0 0 0 0 0 0 0 0 0 0 0 0 0 127 0" result="hardAlpha"/>
<feMorphology radius="9" operator="erode" in="SourceAlpha" result="effect1_dropShadow_1498_488"/>
<feOffset/>
<feGaussianBlur stdDeviation="14.8"/>
<feComposite in2="hardAlpha" operator="out"/>
<feColorMatrix type="matrix" values="0 0 0 0 0 0 0 0 0 0 0 0 0 0 0 0 0 0 0.25 0"/>
<feBlend mode="normal" in2="BackgroundImageFix" result="effect1_dropShadow_1498_488"/>
<feBlend mode="normal" in="SourceGraphic" in2="effect1_dropShadow_1498_488" result="shape"/>
</filter>
<clipPath id="clip0_1498_488">
<rect width="9.35099" height="9.35099" fill="white" transform="translate(93.5234 228.395)"/>
</clipPath>
<clipPath id="clip1_1498_488">
<rect width="9.35099" height="9.35099" fill="white" transform="translate(239.523 228.395)"/>
</clipPath>
<clipPath id="clip2_1498_488">
<rect width="9.35099" height="9.35099" fill="white" transform="translate(385.523 228.395)"/>
</clipPath>
</defs>
</svg>
