<svg width="586" height="375" viewBox="0 0 586 375" fill="none" xmlns="http://www.w3.org/2000/svg">
<rect width="586" height="375" fill="white"/>
<rect x="97" y="53" width="391" height="271" rx="14" fill="#E6EAF6"/>
<path d="M97 67C97 59.268 103.268 53 111 53H474C481.732 53 488 59.268 488 67V86H97V67Z" fill="#6F7E94"/>
<path d="M270.881 73V65.7273H271.719V68.4119H271.79C271.851 68.3172 271.937 68.1965 272.045 68.0497C272.157 67.9006 272.315 67.768 272.521 67.652C272.73 67.5336 273.011 67.4744 273.366 67.4744C273.826 67.4744 274.231 67.5893 274.581 67.8189C274.931 68.0485 275.205 68.3741 275.401 68.7955C275.598 69.2169 275.696 69.714 275.696 70.2869C275.696 70.8646 275.598 71.3653 275.401 71.7891C275.205 72.2105 274.933 72.5372 274.585 72.7692C274.237 72.9988 273.835 73.1136 273.381 73.1136C273.03 73.1136 272.75 73.0556 272.539 72.9396C272.328 72.8213 272.166 72.6875 272.053 72.5384C271.939 72.3868 271.851 72.2614 271.79 72.1619H271.69V73H270.881ZM271.705 70.2727C271.705 70.6847 271.765 71.0481 271.886 71.3629C272.006 71.6754 272.183 71.9205 272.415 72.098C272.647 72.2732 272.931 72.3608 273.267 72.3608C273.617 72.3608 273.91 72.2685 274.144 72.0838C274.381 71.8968 274.558 71.6458 274.677 71.331C274.798 71.0137 274.858 70.661 274.858 70.2727C274.858 69.8892 274.799 69.5436 274.68 69.2358C274.564 68.9257 274.388 68.6806 274.151 68.5007C273.917 68.3184 273.622 68.2273 273.267 68.2273C272.926 68.2273 272.64 68.3137 272.408 68.4865C272.176 68.657 272 68.8961 271.882 69.2038C271.764 69.5092 271.705 69.8655 271.705 70.2727ZM279.265 73.1136C278.739 73.1136 278.286 72.9976 277.905 72.7656C277.526 72.5312 277.234 72.2045 277.028 71.7855C276.824 71.3641 276.722 70.8741 276.722 70.3153C276.722 69.7566 276.824 69.2642 277.028 68.8381C277.234 68.4096 277.52 68.0758 277.887 67.8366C278.256 67.5952 278.687 67.4744 279.18 67.4744C279.464 67.4744 279.744 67.5218 280.021 67.6165C280.298 67.7112 280.55 67.8651 280.778 68.0781C281.005 68.2888 281.186 68.5682 281.321 68.9162C281.456 69.2642 281.523 69.6927 281.523 70.2017V70.5568H277.319V69.8324H280.671C280.671 69.5246 280.61 69.25 280.487 69.0085C280.366 68.767 280.193 68.5765 279.968 68.4368C279.746 68.2971 279.483 68.2273 279.18 68.2273C278.846 68.2273 278.557 68.3101 278.313 68.4759C278.072 68.6392 277.886 68.8523 277.756 69.1151C277.625 69.3778 277.56 69.6596 277.56 69.9602V70.4432C277.56 70.8551 277.631 71.2043 277.773 71.4908C277.918 71.7749 278.118 71.9915 278.374 72.1406C278.629 72.2874 278.926 72.3608 279.265 72.3608C279.485 72.3608 279.684 72.33 279.862 72.2685C280.041 72.2045 280.196 72.1098 280.327 71.9844C280.457 71.8565 280.558 71.6979 280.629 71.5085L281.438 71.7358C281.353 72.0104 281.21 72.2519 281.009 72.4602C280.807 72.6662 280.559 72.8272 280.263 72.9432C279.967 73.0568 279.634 73.1136 279.265 73.1136ZM284.858 73.1136C284.403 73.1136 284.002 72.9988 283.654 72.7692C283.306 72.5372 283.034 72.2105 282.837 71.7891C282.641 71.3653 282.543 70.8646 282.543 70.2869C282.543 69.714 282.641 69.2169 282.837 68.7955C283.034 68.3741 283.307 68.0485 283.658 67.8189C284.008 67.5893 284.413 67.4744 284.872 67.4744C285.227 67.4744 285.508 67.5336 285.714 67.652C285.922 67.768 286.081 67.9006 286.19 68.0497C286.301 68.1965 286.387 68.3172 286.449 68.4119H286.52V65.7273H287.358V73H286.548V72.1619H286.449C286.387 72.2614 286.3 72.3868 286.186 72.5384C286.072 72.6875 285.91 72.8213 285.7 72.9396C285.489 73.0556 285.208 73.1136 284.858 73.1136ZM284.972 72.3608C285.308 72.3608 285.592 72.2732 285.824 72.098C286.056 71.9205 286.232 71.6754 286.353 71.3629C286.474 71.0481 286.534 70.6847 286.534 70.2727C286.534 69.8655 286.475 69.5092 286.357 69.2038C286.238 68.8961 286.063 68.657 285.831 68.4865C285.599 68.3137 285.313 68.2273 284.972 68.2273C284.616 68.2273 284.321 68.3184 284.084 68.5007C283.849 68.6806 283.673 68.9257 283.555 69.2358C283.439 69.5436 283.381 69.8892 283.381 70.2727C283.381 70.661 283.44 71.0137 283.558 71.331C283.679 71.6458 283.857 71.8968 284.091 72.0838C284.328 72.2685 284.621 72.3608 284.972 72.3608ZM289.847 65.7273V73H289.009V65.7273H289.847ZM291.382 73V67.5455H292.22V73H291.382ZM291.808 66.6364C291.645 66.6364 291.504 66.5807 291.386 66.4695C291.27 66.3582 291.212 66.2244 291.212 66.0682C291.212 65.9119 291.27 65.7782 291.386 65.6669C291.504 65.5556 291.645 65.5 291.808 65.5C291.972 65.5 292.111 65.5556 292.227 65.6669C292.346 65.7782 292.405 65.9119 292.405 66.0682C292.405 66.2244 292.346 66.3582 292.227 66.4695C292.111 66.5807 291.972 66.6364 291.808 66.6364ZM294.593 69.7188V73H293.755V67.5455H294.565V68.3977H294.636C294.764 68.1207 294.958 67.8982 295.218 67.7301C295.479 67.5597 295.815 67.4744 296.227 67.4744C296.596 67.4744 296.919 67.5502 297.196 67.7017C297.473 67.8509 297.689 68.0781 297.843 68.3835C297.997 68.6866 298.074 69.0701 298.074 69.5341V73H297.235V69.5909C297.235 69.1624 297.124 68.8286 296.902 68.5895C296.679 68.348 296.374 68.2273 295.985 68.2273C295.718 68.2273 295.479 68.2853 295.268 68.4013C295.06 68.5173 294.895 68.6866 294.775 68.9091C294.654 69.1316 294.593 69.4015 294.593 69.7188ZM300.386 71.0114L300.372 69.9744H300.542L302.929 67.5455H303.966L301.423 70.1165H301.352L300.386 71.0114ZM299.605 73V65.7273H300.443V73H299.605ZM303.071 73L300.94 70.3011L301.537 69.7188L304.136 73H303.071ZM305.655 73.0568C305.48 73.0568 305.33 72.9941 305.204 72.8686C305.079 72.7431 305.016 72.5928 305.016 72.4176C305.016 72.2424 305.079 72.0921 305.204 71.9666C305.33 71.8411 305.48 71.7784 305.655 71.7784C305.83 71.7784 305.981 71.8411 306.106 71.9666C306.232 72.0921 306.294 72.2424 306.294 72.4176C306.294 72.5336 306.265 72.6402 306.206 72.7372C306.149 72.8343 306.072 72.9124 305.975 72.9716C305.88 73.0284 305.774 73.0568 305.655 73.0568ZM307.798 73V67.5455H308.636V73H307.798ZM308.224 66.6364C308.061 66.6364 307.92 66.5807 307.802 66.4695C307.686 66.3582 307.628 66.2244 307.628 66.0682C307.628 65.9119 307.686 65.7782 307.802 65.6669C307.92 65.5556 308.061 65.5 308.224 65.5C308.388 65.5 308.527 65.5556 308.643 65.6669C308.762 65.7782 308.821 65.9119 308.821 66.0682C308.821 66.2244 308.762 66.3582 308.643 66.4695C308.527 66.5807 308.388 66.6364 308.224 66.6364ZM312.231 73.1136C311.776 73.1136 311.375 72.9988 311.027 72.7692C310.679 72.5372 310.407 72.2105 310.21 71.7891C310.014 71.3653 309.916 70.8646 309.916 70.2869C309.916 69.714 310.014 69.2169 310.21 68.7955C310.407 68.3741 310.68 68.0485 311.031 67.8189C311.381 67.5893 311.786 67.4744 312.245 67.4744C312.6 67.4744 312.881 67.5336 313.087 67.652C313.295 67.768 313.454 67.9006 313.563 68.0497C313.674 68.1965 313.76 68.3172 313.822 68.4119H313.893V65.7273H314.731V73H313.921V72.1619H313.822C313.76 72.2614 313.673 72.3868 313.559 72.5384C313.445 72.6875 313.283 72.8213 313.073 72.9396C312.862 73.0556 312.581 73.1136 312.231 73.1136ZM312.345 72.3608C312.681 72.3608 312.965 72.2732 313.197 72.098C313.429 71.9205 313.605 71.6754 313.726 71.3629C313.847 71.0481 313.907 70.6847 313.907 70.2727C313.907 69.8655 313.848 69.5092 313.73 69.2038C313.611 68.8961 313.436 68.657 313.204 68.4865C312.972 68.3137 312.686 68.2273 312.345 68.2273C311.99 68.2273 311.694 68.3184 311.457 68.5007C311.222 68.6806 311.046 68.9257 310.928 69.2358C310.812 69.5436 310.754 69.8892 310.754 70.2727C310.754 70.661 310.813 71.0137 310.931 71.331C311.052 71.6458 311.23 71.8968 311.464 72.0838C311.701 72.2685 311.994 72.3608 312.345 72.3608Z" fill="#E5E9F5"/>
<circle cx="114" cy="69" r="4" fill="#FD8265"/>
<circle cx="138" cy="69" r="4" fill="#98D8B5"/>
<circle cx="126" cy="69" r="4" fill="#FBCE2E"/>
<g filter="url(#filter0_d_1498_492)">
<rect x="63" y="161" width="460" height="71" rx="35.5" fill="white"/>
</g>
<circle cx="483.5" cy="197.5" r="29.5" fill="#F7F7F7"/>
<path d="M484.558 205.285L477.928 201.735C476.776 202.944 475.136 203.7 473.316 203.7C469.828 203.7 467 200.924 467 197.5C467 194.076 469.828 191.3 473.316 191.3C475.136 191.3 476.776 192.056 477.928 193.265L484.558 189.715C484.434 189.23 484.368 188.722 484.368 188.2C484.368 184.776 487.196 182 490.684 182C494.172 182 497 184.776 497 188.2C497 191.624 494.172 194.4 490.684 194.4C488.864 194.4 487.224 193.644 486.072 192.435L479.442 195.985C479.566 196.47 479.632 196.977 479.632 197.5C479.632 198.023 479.566 198.53 479.442 199.015L486.072 202.565C487.224 201.356 488.864 200.6 490.684 200.6C494.172 200.6 497 203.376 497 206.8C497 210.224 494.172 213 490.684 213C487.196 213 484.368 210.224 484.368 206.8C484.368 206.277 484.434 205.77 484.558 205.285ZM473.316 200.6C475.06 200.6 476.474 199.212 476.474 197.5C476.474 195.788 475.06 194.4 473.316 194.4C471.572 194.4 470.158 195.788 470.158 197.5C470.158 199.212 471.572 200.6 473.316 200.6ZM490.684 191.3C492.428 191.3 493.842 189.912 493.842 188.2C493.842 186.488 492.428 185.1 490.684 185.1C488.94 185.1 487.526 186.488 487.526 188.2C487.526 189.912 488.94 191.3 490.684 191.3ZM490.684 209.9C492.428 209.9 493.842 208.512 493.842 206.8C493.842 205.088 492.428 203.7 490.684 203.7C488.94 203.7 487.526 205.088 487.526 206.8C487.526 208.512 488.94 209.9 490.684 209.9Z" fill="#6F7E94"/>
<path d="M144.114 204V186.545H150.216C151.432 186.545 152.435 186.756 153.224 187.176C154.014 187.591 154.602 188.151 154.989 188.855C155.375 189.554 155.568 190.33 155.568 191.182C155.568 191.932 155.435 192.551 155.168 193.04C154.906 193.528 154.56 193.915 154.128 194.199C153.702 194.483 153.239 194.693 152.739 194.83V195C153.273 195.034 153.81 195.222 154.349 195.562C154.889 195.903 155.341 196.392 155.705 197.028C156.068 197.665 156.25 198.443 156.25 199.364C156.25 200.239 156.051 201.026 155.653 201.724C155.256 202.423 154.628 202.977 153.77 203.386C152.912 203.795 151.795 204 150.42 204H144.114ZM146.227 202.125H150.42C151.801 202.125 152.781 201.858 153.361 201.324C153.946 200.784 154.239 200.131 154.239 199.364C154.239 198.773 154.088 198.227 153.787 197.727C153.486 197.222 153.057 196.818 152.5 196.517C151.943 196.21 151.284 196.057 150.523 196.057H146.227V202.125ZM146.227 194.216H150.148C150.784 194.216 151.358 194.091 151.869 193.841C152.386 193.591 152.795 193.239 153.097 192.784C153.403 192.33 153.557 191.795 153.557 191.182C153.557 190.415 153.29 189.764 152.756 189.23C152.222 188.69 151.375 188.42 150.216 188.42H146.227V194.216ZM163.303 204.307C162.473 204.307 161.72 204.151 161.044 203.838C160.368 203.52 159.831 203.062 159.433 202.466C159.036 201.864 158.837 201.136 158.837 200.284C158.837 199.534 158.984 198.926 159.28 198.46C159.575 197.989 159.97 197.619 160.464 197.352C160.959 197.085 161.504 196.886 162.101 196.756C162.703 196.619 163.308 196.511 163.916 196.432C164.712 196.33 165.357 196.253 165.851 196.202C166.351 196.145 166.714 196.051 166.942 195.92C167.175 195.79 167.291 195.562 167.291 195.239V195.17C167.291 194.33 167.061 193.676 166.601 193.21C166.146 192.744 165.456 192.511 164.53 192.511C163.57 192.511 162.817 192.722 162.271 193.142C161.726 193.562 161.342 194.011 161.121 194.489L159.212 193.807C159.553 193.011 160.007 192.392 160.575 191.949C161.149 191.5 161.774 191.187 162.45 191.011C163.132 190.83 163.803 190.739 164.462 190.739C164.882 190.739 165.365 190.79 165.911 190.892C166.462 190.989 166.993 191.19 167.504 191.497C168.021 191.804 168.45 192.267 168.791 192.886C169.132 193.506 169.303 194.335 169.303 195.375V204H167.291V202.227H167.189C167.053 202.511 166.825 202.815 166.507 203.139C166.189 203.463 165.766 203.739 165.237 203.966C164.709 204.193 164.064 204.307 163.303 204.307ZM163.609 202.5C164.405 202.5 165.075 202.344 165.621 202.031C166.172 201.719 166.587 201.315 166.865 200.821C167.149 200.327 167.291 199.807 167.291 199.261V197.42C167.206 197.523 167.018 197.616 166.729 197.702C166.445 197.781 166.115 197.852 165.74 197.915C165.371 197.972 165.01 198.023 164.658 198.068C164.311 198.108 164.03 198.142 163.814 198.17C163.291 198.239 162.803 198.349 162.348 198.503C161.899 198.651 161.536 198.875 161.257 199.176C160.984 199.472 160.848 199.875 160.848 200.386C160.848 201.085 161.107 201.614 161.624 201.972C162.146 202.324 162.808 202.5 163.609 202.5ZM178.258 209.182C177.286 209.182 176.451 209.057 175.752 208.807C175.053 208.562 174.471 208.239 174.005 207.835C173.545 207.438 173.178 207.011 172.906 206.557L174.508 205.432C174.69 205.67 174.92 205.943 175.198 206.25C175.477 206.562 175.857 206.832 176.34 207.06C176.829 207.293 177.468 207.409 178.258 207.409C179.315 207.409 180.187 207.153 180.874 206.642C181.562 206.131 181.906 205.33 181.906 204.239V201.58H181.735C181.587 201.818 181.377 202.114 181.104 202.466C180.837 202.812 180.451 203.122 179.945 203.395C179.445 203.662 178.769 203.795 177.917 203.795C176.86 203.795 175.911 203.545 175.07 203.045C174.235 202.545 173.573 201.818 173.085 200.864C172.602 199.909 172.36 198.75 172.36 197.386C172.36 196.045 172.596 194.878 173.067 193.884C173.539 192.884 174.195 192.111 175.036 191.565C175.877 191.014 176.849 190.739 177.951 190.739C178.803 190.739 179.479 190.881 179.979 191.165C180.485 191.443 180.871 191.761 181.138 192.119C181.411 192.472 181.621 192.761 181.769 192.989H181.974V190.909H183.917V204.375C183.917 205.5 183.661 206.415 183.15 207.119C182.644 207.83 181.962 208.349 181.104 208.679C180.252 209.014 179.303 209.182 178.258 209.182ZM178.19 201.989C178.996 201.989 179.678 201.804 180.235 201.435C180.792 201.065 181.215 200.534 181.505 199.841C181.795 199.148 181.94 198.318 181.94 197.352C181.94 196.409 181.798 195.577 181.513 194.855C181.229 194.134 180.809 193.568 180.252 193.159C179.695 192.75 179.008 192.545 178.19 192.545C177.337 192.545 176.627 192.761 176.059 193.193C175.496 193.625 175.073 194.205 174.789 194.932C174.511 195.659 174.371 196.466 174.371 197.352C174.371 198.261 174.513 199.065 174.798 199.764C175.087 200.457 175.513 201.003 176.076 201.401C176.644 201.793 177.349 201.989 178.19 201.989ZM187.599 204V190.909H189.61V204H187.599ZM188.621 188.727C188.229 188.727 187.891 188.594 187.607 188.327C187.329 188.06 187.19 187.739 187.19 187.364C187.19 186.989 187.329 186.668 187.607 186.401C187.891 186.134 188.229 186 188.621 186C189.013 186 189.349 186.134 189.627 186.401C189.911 186.668 190.053 186.989 190.053 187.364C190.053 187.739 189.911 188.06 189.627 188.327C189.349 188.594 189.013 188.727 188.621 188.727ZM195.169 199.227L195.135 196.739H195.544L201.271 190.909H203.76L197.658 197.08H197.487L195.169 199.227ZM193.294 204V186.545H195.305V204H193.294ZM201.612 204L196.499 197.523L197.93 196.125L204.169 204H201.612ZM210.201 204.307C209.371 204.307 208.619 204.151 207.942 203.838C207.266 203.52 206.729 203.062 206.332 202.466C205.934 201.864 205.735 201.136 205.735 200.284C205.735 199.534 205.883 198.926 206.178 198.46C206.474 197.989 206.869 197.619 207.363 197.352C207.857 197.085 208.403 196.886 208.999 196.756C209.602 196.619 210.207 196.511 210.815 196.432C211.61 196.33 212.255 196.253 212.749 196.202C213.249 196.145 213.613 196.051 213.84 195.92C214.073 195.79 214.19 195.562 214.19 195.239V195.17C214.19 194.33 213.96 193.676 213.499 193.21C213.045 192.744 212.354 192.511 211.428 192.511C210.468 192.511 209.715 192.722 209.17 193.142C208.624 193.562 208.241 194.011 208.019 194.489L206.11 193.807C206.451 193.011 206.906 192.392 207.474 191.949C208.048 191.5 208.673 191.187 209.349 191.011C210.031 190.83 210.701 190.739 211.36 190.739C211.781 190.739 212.263 190.79 212.809 190.892C213.36 190.989 213.891 191.19 214.403 191.497C214.92 191.804 215.349 192.267 215.69 192.886C216.031 193.506 216.201 194.335 216.201 195.375V204H214.19V202.227H214.087C213.951 202.511 213.724 202.815 213.406 203.139C213.087 203.463 212.664 203.739 212.136 203.966C211.607 204.193 210.962 204.307 210.201 204.307ZM210.508 202.5C211.303 202.5 211.974 202.344 212.519 202.031C213.07 201.719 213.485 201.315 213.763 200.821C214.048 200.327 214.19 199.807 214.19 199.261V197.42C214.104 197.523 213.917 197.616 213.627 197.702C213.343 197.781 213.013 197.852 212.638 197.915C212.269 197.972 211.908 198.023 211.556 198.068C211.21 198.108 210.928 198.142 210.712 198.17C210.19 198.239 209.701 198.349 209.246 198.503C208.798 198.651 208.434 198.875 208.156 199.176C207.883 199.472 207.746 199.875 207.746 200.386C207.746 201.085 208.005 201.614 208.522 201.972C209.045 202.324 209.707 202.5 210.508 202.5ZM221.884 196.125V204H219.872V190.909H221.815V192.955H221.986C222.293 192.29 222.759 191.756 223.384 191.352C224.009 190.943 224.815 190.739 225.804 190.739C226.69 190.739 227.466 190.92 228.131 191.284C228.795 191.642 229.313 192.188 229.682 192.92C230.051 193.648 230.236 194.568 230.236 195.682V204H228.224V195.818C228.224 194.79 227.957 193.989 227.423 193.415C226.889 192.835 226.156 192.545 225.224 192.545C224.582 192.545 224.009 192.685 223.503 192.963C223.003 193.241 222.608 193.648 222.318 194.182C222.028 194.716 221.884 195.364 221.884 196.125ZM240.934 204V186.545H243.048V202.125H251.161V204H240.934ZM254.161 204V190.909H256.173V204H254.161ZM255.184 188.727C254.792 188.727 254.454 188.594 254.17 188.327C253.891 188.06 253.752 187.739 253.752 187.364C253.752 186.989 253.891 186.668 254.17 186.401C254.454 186.134 254.792 186 255.184 186C255.576 186 255.911 186.134 256.19 186.401C256.474 186.668 256.616 186.989 256.616 187.364C256.616 187.739 256.474 188.06 256.19 188.327C255.911 188.594 255.576 188.727 255.184 188.727ZM261.868 196.125V204H259.857V190.909H261.8V192.955H261.97C262.277 192.29 262.743 191.756 263.368 191.352C263.993 190.943 264.8 190.739 265.788 190.739C266.675 190.739 267.45 190.92 268.115 191.284C268.78 191.642 269.297 192.188 269.666 192.92C270.036 193.648 270.22 194.568 270.22 195.682V204H268.209V195.818C268.209 194.79 267.942 193.989 267.408 193.415C266.874 192.835 266.141 192.545 265.209 192.545C264.567 192.545 263.993 192.685 263.487 192.963C262.987 193.241 262.592 193.648 262.303 194.182C262.013 194.716 261.868 195.364 261.868 196.125ZM275.771 199.227L275.737 196.739H276.146L281.873 190.909H284.362L278.259 197.08H278.089L275.771 199.227ZM273.896 204V186.545H275.907V204H273.896ZM282.214 204L277.1 197.523L278.532 196.125L284.771 204H282.214ZM303.518 190.909C303.416 190.045 303.001 189.375 302.274 188.898C301.547 188.42 300.655 188.182 299.598 188.182C298.825 188.182 298.149 188.307 297.57 188.557C296.996 188.807 296.547 189.151 296.223 189.588C295.905 190.026 295.746 190.523 295.746 191.08C295.746 191.545 295.857 191.946 296.078 192.281C296.305 192.611 296.595 192.886 296.947 193.108C297.3 193.324 297.669 193.503 298.055 193.645C298.442 193.781 298.797 193.892 299.121 193.977L300.893 194.455C301.348 194.574 301.854 194.739 302.411 194.949C302.973 195.159 303.51 195.446 304.021 195.81C304.538 196.168 304.964 196.628 305.3 197.19C305.635 197.753 305.803 198.443 305.803 199.261C305.803 200.205 305.555 201.057 305.061 201.818C304.572 202.58 303.857 203.185 302.913 203.634C301.976 204.082 300.837 204.307 299.496 204.307C298.246 204.307 297.163 204.105 296.249 203.702C295.339 203.298 294.624 202.736 294.101 202.014C293.584 201.293 293.291 200.455 293.223 199.5H295.405C295.462 200.159 295.683 200.705 296.07 201.136C296.462 201.562 296.956 201.881 297.553 202.091C298.155 202.295 298.803 202.398 299.496 202.398C300.303 202.398 301.027 202.267 301.669 202.006C302.311 201.739 302.82 201.369 303.195 200.898C303.57 200.42 303.757 199.864 303.757 199.227C303.757 198.648 303.595 198.176 303.271 197.812C302.947 197.449 302.521 197.153 301.993 196.926C301.464 196.699 300.893 196.5 300.28 196.33L298.132 195.716C296.768 195.324 295.689 194.764 294.893 194.037C294.098 193.31 293.7 192.358 293.7 191.182C293.7 190.205 293.964 189.352 294.493 188.625C295.027 187.892 295.743 187.324 296.641 186.92C297.544 186.511 298.553 186.307 299.666 186.307C300.791 186.307 301.791 186.509 302.666 186.912C303.541 187.31 304.234 187.855 304.746 188.548C305.263 189.241 305.536 190.028 305.564 190.909H303.518ZM314.494 204.273C313.232 204.273 312.144 203.994 311.229 203.438C310.32 202.875 309.619 202.091 309.124 201.085C308.636 200.074 308.391 198.898 308.391 197.557C308.391 196.216 308.636 195.034 309.124 194.011C309.619 192.983 310.306 192.182 311.187 191.608C312.073 191.028 313.107 190.739 314.289 190.739C314.971 190.739 315.644 190.852 316.309 191.08C316.974 191.307 317.579 191.676 318.124 192.188C318.67 192.693 319.104 193.364 319.428 194.199C319.752 195.034 319.914 196.062 319.914 197.284V198.136H309.823V196.398H317.869C317.869 195.659 317.721 195 317.425 194.42C317.136 193.841 316.721 193.384 316.181 193.048C315.647 192.713 315.016 192.545 314.289 192.545C313.488 192.545 312.795 192.744 312.21 193.142C311.63 193.534 311.184 194.045 310.871 194.676C310.559 195.307 310.403 195.983 310.403 196.705V197.864C310.403 198.852 310.573 199.69 310.914 200.378C311.261 201.06 311.741 201.58 312.354 201.938C312.968 202.29 313.681 202.466 314.494 202.466C315.022 202.466 315.499 202.392 315.925 202.244C316.357 202.091 316.729 201.864 317.042 201.562C317.354 201.256 317.596 200.875 317.766 200.42L319.71 200.966C319.505 201.625 319.161 202.205 318.678 202.705C318.195 203.199 317.599 203.585 316.888 203.864C316.178 204.136 315.38 204.273 314.494 204.273ZM324.849 199.227L324.815 196.739H325.224L330.951 190.909H333.44L327.337 197.08H327.167L324.849 199.227ZM322.974 204V186.545H324.985V204H322.974ZM331.292 204L326.178 197.523L327.61 196.125L333.849 204H331.292ZM339.881 204.307C339.051 204.307 338.298 204.151 337.622 203.838C336.946 203.52 336.409 203.062 336.011 202.466C335.614 201.864 335.415 201.136 335.415 200.284C335.415 199.534 335.563 198.926 335.858 198.46C336.153 197.989 336.548 197.619 337.043 197.352C337.537 197.085 338.082 196.886 338.679 196.756C339.281 196.619 339.886 196.511 340.494 196.432C341.29 196.33 341.935 196.253 342.429 196.202C342.929 196.145 343.293 196.051 343.52 195.92C343.753 195.79 343.869 195.562 343.869 195.239V195.17C343.869 194.33 343.639 193.676 343.179 193.21C342.724 192.744 342.034 192.511 341.108 192.511C340.148 192.511 339.395 192.722 338.849 193.142C338.304 193.562 337.92 194.011 337.699 194.489L335.79 193.807C336.131 193.011 336.585 192.392 337.153 191.949C337.727 191.5 338.352 191.187 339.028 191.011C339.71 190.83 340.381 190.739 341.04 190.739C341.46 190.739 341.943 190.79 342.489 190.892C343.04 190.989 343.571 191.19 344.082 191.497C344.599 191.804 345.028 192.267 345.369 192.886C345.71 193.506 345.881 194.335 345.881 195.375V204H343.869V202.227H343.767C343.631 202.511 343.403 202.815 343.085 203.139C342.767 203.463 342.344 203.739 341.815 203.966C341.287 204.193 340.642 204.307 339.881 204.307ZM340.188 202.5C340.983 202.5 341.653 202.344 342.199 202.031C342.75 201.719 343.165 201.315 343.443 200.821C343.727 200.327 343.869 199.807 343.869 199.261V197.42C343.784 197.523 343.597 197.616 343.307 197.702C343.023 197.781 342.693 197.852 342.318 197.915C341.949 197.972 341.588 198.023 341.236 198.068C340.889 198.108 340.608 198.142 340.392 198.17C339.869 198.239 339.381 198.349 338.926 198.503C338.477 198.651 338.114 198.875 337.835 199.176C337.563 199.472 337.426 199.875 337.426 200.386C337.426 201.085 337.685 201.614 338.202 201.972C338.724 202.324 339.386 202.5 340.188 202.5ZM349.552 204V190.909H351.495V192.886H351.631C351.87 192.239 352.302 191.713 352.927 191.31C353.552 190.906 354.256 190.705 355.04 190.705C355.188 190.705 355.373 190.707 355.594 190.713C355.816 190.719 355.984 190.727 356.097 190.739V192.784C356.029 192.767 355.873 192.741 355.629 192.707C355.39 192.668 355.137 192.648 354.87 192.648C354.234 192.648 353.665 192.781 353.165 193.048C352.671 193.31 352.279 193.673 351.989 194.139C351.705 194.599 351.563 195.125 351.563 195.716V204H349.552ZM362.334 204.307C361.504 204.307 360.751 204.151 360.075 203.838C359.399 203.52 358.862 203.062 358.464 202.466C358.067 201.864 357.868 201.136 357.868 200.284C357.868 199.534 358.016 198.926 358.311 198.46C358.607 197.989 359.001 197.619 359.496 197.352C359.99 197.085 360.536 196.886 361.132 196.756C361.734 196.619 362.339 196.511 362.947 196.432C363.743 196.33 364.388 196.253 364.882 196.202C365.382 196.145 365.746 196.051 365.973 195.92C366.206 195.79 366.322 195.562 366.322 195.239V195.17C366.322 194.33 366.092 193.676 365.632 193.21C365.178 192.744 364.487 192.511 363.561 192.511C362.601 192.511 361.848 192.722 361.303 193.142C360.757 193.562 360.374 194.011 360.152 194.489L358.243 193.807C358.584 193.011 359.038 192.392 359.607 191.949C360.18 191.5 360.805 191.187 361.482 191.011C362.163 190.83 362.834 190.739 363.493 190.739C363.913 190.739 364.396 190.79 364.942 190.892C365.493 190.989 366.024 191.19 366.536 191.497C367.053 191.804 367.482 192.267 367.822 192.886C368.163 193.506 368.334 194.335 368.334 195.375V204H366.322V202.227H366.22C366.084 202.511 365.857 202.815 365.538 203.139C365.22 203.463 364.797 203.739 364.268 203.966C363.74 204.193 363.095 204.307 362.334 204.307ZM362.641 202.5C363.436 202.5 364.107 202.344 364.652 202.031C365.203 201.719 365.618 201.315 365.896 200.821C366.18 200.327 366.322 199.807 366.322 199.261V197.42C366.237 197.523 366.05 197.616 365.76 197.702C365.476 197.781 365.146 197.852 364.771 197.915C364.402 197.972 364.041 198.023 363.689 198.068C363.342 198.108 363.061 198.142 362.845 198.17C362.322 198.239 361.834 198.349 361.379 198.503C360.93 198.651 360.567 198.875 360.288 199.176C360.016 199.472 359.879 199.875 359.879 200.386C359.879 201.085 360.138 201.614 360.655 201.972C361.178 202.324 361.839 202.5 362.641 202.5ZM374.016 196.125V204H372.005V190.909H373.948V192.955H374.119C374.425 192.29 374.891 191.756 375.516 191.352C376.141 190.943 376.948 190.739 377.937 190.739C378.823 190.739 379.599 190.92 380.263 191.284C380.928 191.642 381.445 192.188 381.815 192.92C382.184 193.648 382.369 194.568 382.369 195.682V204H380.357V195.818C380.357 194.79 380.09 193.989 379.556 193.415C379.022 192.835 378.289 192.545 377.357 192.545C376.715 192.545 376.141 192.685 375.636 192.963C375.136 193.241 374.741 193.648 374.451 194.182C374.161 194.716 374.016 195.364 374.016 196.125ZM391.328 209.182C390.357 209.182 389.521 209.057 388.822 208.807C388.124 208.562 387.541 208.239 387.075 207.835C386.615 207.438 386.249 207.011 385.976 206.557L387.578 205.432C387.76 205.67 387.99 205.943 388.268 206.25C388.547 206.562 388.928 206.832 389.411 207.06C389.899 207.293 390.538 207.409 391.328 207.409C392.385 207.409 393.257 207.153 393.945 206.642C394.632 206.131 394.976 205.33 394.976 204.239V201.58H394.805C394.658 201.818 394.447 202.114 394.175 202.466C393.908 202.812 393.521 203.122 393.016 203.395C392.516 203.662 391.839 203.795 390.987 203.795C389.93 203.795 388.982 203.545 388.141 203.045C387.305 202.545 386.643 201.818 386.155 200.864C385.672 199.909 385.43 198.75 385.43 197.386C385.43 196.045 385.666 194.878 386.138 193.884C386.609 192.884 387.266 192.111 388.107 191.565C388.947 191.014 389.919 190.739 391.021 190.739C391.874 190.739 392.55 190.881 393.05 191.165C393.555 191.443 393.942 191.761 394.209 192.119C394.482 192.472 394.692 192.761 394.839 192.989H395.044V190.909H396.987V204.375C396.987 205.5 396.732 206.415 396.22 207.119C395.714 207.83 395.033 208.349 394.175 208.679C393.322 209.014 392.374 209.182 391.328 209.182ZM391.26 201.989C392.067 201.989 392.749 201.804 393.305 201.435C393.862 201.065 394.286 200.534 394.575 199.841C394.865 199.148 395.01 198.318 395.01 197.352C395.01 196.409 394.868 195.577 394.584 194.855C394.3 194.134 393.879 193.568 393.322 193.159C392.766 192.75 392.078 192.545 391.26 192.545C390.408 192.545 389.697 192.761 389.129 193.193C388.567 193.625 388.143 194.205 387.859 194.932C387.581 195.659 387.442 196.466 387.442 197.352C387.442 198.261 387.584 199.065 387.868 199.764C388.158 200.457 388.584 201.003 389.146 201.401C389.714 201.793 390.419 201.989 391.26 201.989ZM403.328 186.545L403.158 199.091H401.18L401.01 186.545H403.328ZM402.169 204.136C401.749 204.136 401.388 203.986 401.087 203.685C400.786 203.384 400.635 203.023 400.635 202.602C400.635 202.182 400.786 201.821 401.087 201.52C401.388 201.219 401.749 201.068 402.169 201.068C402.589 201.068 402.95 201.219 403.251 201.52C403.553 201.821 403.703 202.182 403.703 202.602C403.703 202.881 403.632 203.136 403.49 203.369C403.354 203.602 403.169 203.79 402.936 203.932C402.709 204.068 402.453 204.136 402.169 204.136Z" fill="#6F7E94"/>
<defs>
<filter id="filter0_d_1498_492" x="42.4" y="140.4" width="501.2" height="112.2" filterUnits="userSpaceOnUse" color-interpolation-filters="sRGB">
<feFlood flood-opacity="0" result="BackgroundImageFix"/>
<feColorMatrix in="SourceAlpha" type="matrix" values="0 0 0 0 0 0 0 0 0 0 0 0 0 0 0 0 0 0 127 0" result="hardAlpha"/>
<feMorphology radius="9" operator="erode" in="SourceAlpha" result="effect1_dropShadow_1498_492"/>
<feOffset/>
<feGaussianBlur stdDeviation="14.8"/>
<feComposite in2="hardAlpha" operator="out"/>
<feColorMatrix type="matrix" values="0 0 0 0 0 0 0 0 0 0 0 0 0 0 0 0 0 0 0.25 0"/>
<feBlend mode="normal" in2="BackgroundImageFix" result="effect1_dropShadow_1498_492"/>
<feBlend mode="normal" in="SourceGraphic" in2="effect1_dropShadow_1498_492" result="shape"/>
</filter>
</defs>
</svg>
