<svg width="586" height="375" viewBox="0 0 586 375" fill="none" xmlns="http://www.w3.org/2000/svg">
<rect width="586" height="375" fill="white"/>
<rect x="97" y="53" width="391" height="271" rx="14" fill="#E6EAF6"/>
<path d="M97 67C97 59.268 103.268 53 111 53H474C481.732 53 488 59.268 488 67V86H97V67Z" fill="#6F7E94"/>
<path d="M270.881 73V65.7273H271.719V68.4119H271.79C271.851 68.3172 271.937 68.1965 272.045 68.0497C272.157 67.9006 272.315 67.768 272.521 67.652C272.73 67.5336 273.011 67.4744 273.366 67.4744C273.826 67.4744 274.231 67.5893 274.581 67.8189C274.931 68.0485 275.205 68.3741 275.401 68.7955C275.598 69.2169 275.696 69.714 275.696 70.2869C275.696 70.8646 275.598 71.3653 275.401 71.7891C275.205 72.2105 274.933 72.5372 274.585 72.7692C274.237 72.9988 273.835 73.1136 273.381 73.1136C273.03 73.1136 272.75 73.0556 272.539 72.9396C272.328 72.8213 272.166 72.6875 272.053 72.5384C271.939 72.3868 271.851 72.2614 271.79 72.1619H271.69V73H270.881ZM271.705 70.2727C271.705 70.6847 271.765 71.0481 271.886 71.3629C272.006 71.6754 272.183 71.9205 272.415 72.098C272.647 72.2732 272.931 72.3608 273.267 72.3608C273.617 72.3608 273.91 72.2685 274.144 72.0838C274.381 71.8968 274.558 71.6458 274.677 71.331C274.798 71.0137 274.858 70.661 274.858 70.2727C274.858 69.8892 274.799 69.5436 274.68 69.2358C274.564 68.9257 274.388 68.6806 274.151 68.5007C273.917 68.3184 273.622 68.2273 273.267 68.2273C272.926 68.2273 272.64 68.3137 272.408 68.4865C272.176 68.657 272 68.8961 271.882 69.2038C271.764 69.5092 271.705 69.8655 271.705 70.2727ZM279.265 73.1136C278.739 73.1136 278.286 72.9976 277.905 72.7656C277.526 72.5312 277.234 72.2045 277.028 71.7855C276.824 71.3641 276.722 70.8741 276.722 70.3153C276.722 69.7566 276.824 69.2642 277.028 68.8381C277.234 68.4096 277.52 68.0758 277.887 67.8366C278.256 67.5952 278.687 67.4744 279.18 67.4744C279.464 67.4744 279.744 67.5218 280.021 67.6165C280.298 67.7112 280.55 67.8651 280.778 68.0781C281.005 68.2888 281.186 68.5682 281.321 68.9162C281.456 69.2642 281.523 69.6927 281.523 70.2017V70.5568H277.319V69.8324H280.671C280.671 69.5246 280.61 69.25 280.487 69.0085C280.366 68.767 280.193 68.5765 279.968 68.4368C279.746 68.2971 279.483 68.2273 279.18 68.2273C278.846 68.2273 278.557 68.3101 278.313 68.4759C278.072 68.6392 277.886 68.8523 277.756 69.1151C277.625 69.3778 277.56 69.6596 277.56 69.9602V70.4432C277.56 70.8551 277.631 71.2043 277.773 71.4908C277.918 71.7749 278.118 71.9915 278.374 72.1406C278.629 72.2874 278.926 72.3608 279.265 72.3608C279.485 72.3608 279.684 72.33 279.862 72.2685C280.041 72.2045 280.196 72.1098 280.327 71.9844C280.457 71.8565 280.558 71.6979 280.629 71.5085L281.438 71.7358C281.353 72.0104 281.21 72.2519 281.009 72.4602C280.807 72.6662 280.559 72.8272 280.263 72.9432C279.967 73.0568 279.634 73.1136 279.265 73.1136ZM284.858 73.1136C284.403 73.1136 284.002 72.9988 283.654 72.7692C283.306 72.5372 283.034 72.2105 282.837 71.7891C282.641 71.3653 282.543 70.8646 282.543 70.2869C282.543 69.714 282.641 69.2169 282.837 68.7955C283.034 68.3741 283.307 68.0485 283.658 67.8189C284.008 67.5893 284.413 67.4744 284.872 67.4744C285.227 67.4744 285.508 67.5336 285.714 67.652C285.922 67.768 286.081 67.9006 286.19 68.0497C286.301 68.1965 286.387 68.3172 286.449 68.4119H286.52V65.7273H287.358V73H286.548V72.1619H286.449C286.387 72.2614 286.3 72.3868 286.186 72.5384C286.072 72.6875 285.91 72.8213 285.7 72.9396C285.489 73.0556 285.208 73.1136 284.858 73.1136ZM284.972 72.3608C285.308 72.3608 285.592 72.2732 285.824 72.098C286.056 71.9205 286.232 71.6754 286.353 71.3629C286.474 71.0481 286.534 70.6847 286.534 70.2727C286.534 69.8655 286.475 69.5092 286.357 69.2038C286.238 68.8961 286.063 68.657 285.831 68.4865C285.599 68.3137 285.313 68.2273 284.972 68.2273C284.616 68.2273 284.321 68.3184 284.084 68.5007C283.849 68.6806 283.673 68.9257 283.555 69.2358C283.439 69.5436 283.381 69.8892 283.381 70.2727C283.381 70.661 283.44 71.0137 283.558 71.331C283.679 71.6458 283.857 71.8968 284.091 72.0838C284.328 72.2685 284.621 72.3608 284.972 72.3608ZM289.847 65.7273V73H289.009V65.7273H289.847ZM291.382 73V67.5455H292.22V73H291.382ZM291.808 66.6364C291.645 66.6364 291.504 66.5807 291.386 66.4695C291.27 66.3582 291.212 66.2244 291.212 66.0682C291.212 65.9119 291.27 65.7782 291.386 65.6669C291.504 65.5556 291.645 65.5 291.808 65.5C291.972 65.5 292.111 65.5556 292.227 65.6669C292.346 65.7782 292.405 65.9119 292.405 66.0682C292.405 66.2244 292.346 66.3582 292.227 66.4695C292.111 66.5807 291.972 66.6364 291.808 66.6364ZM294.593 69.7188V73H293.755V67.5455H294.565V68.3977H294.636C294.764 68.1207 294.958 67.8982 295.218 67.7301C295.479 67.5597 295.815 67.4744 296.227 67.4744C296.596 67.4744 296.919 67.5502 297.196 67.7017C297.473 67.8509 297.689 68.0781 297.843 68.3835C297.997 68.6866 298.074 69.0701 298.074 69.5341V73H297.235V69.5909C297.235 69.1624 297.124 68.8286 296.902 68.5895C296.679 68.348 296.374 68.2273 295.985 68.2273C295.718 68.2273 295.479 68.2853 295.268 68.4013C295.06 68.5173 294.895 68.6866 294.775 68.9091C294.654 69.1316 294.593 69.4015 294.593 69.7188ZM300.386 71.0114L300.372 69.9744H300.542L302.929 67.5455H303.966L301.423 70.1165H301.352L300.386 71.0114ZM299.605 73V65.7273H300.443V73H299.605ZM303.071 73L300.94 70.3011L301.537 69.7188L304.136 73H303.071ZM305.655 73.0568C305.48 73.0568 305.33 72.9941 305.204 72.8686C305.079 72.7431 305.016 72.5928 305.016 72.4176C305.016 72.2424 305.079 72.0921 305.204 71.9666C305.33 71.8411 305.48 71.7784 305.655 71.7784C305.83 71.7784 305.981 71.8411 306.106 71.9666C306.232 72.0921 306.294 72.2424 306.294 72.4176C306.294 72.5336 306.265 72.6402 306.206 72.7372C306.149 72.8343 306.072 72.9124 305.975 72.9716C305.88 73.0284 305.774 73.0568 305.655 73.0568ZM307.798 73V67.5455H308.636V73H307.798ZM308.224 66.6364C308.061 66.6364 307.92 66.5807 307.802 66.4695C307.686 66.3582 307.628 66.2244 307.628 66.0682C307.628 65.9119 307.686 65.7782 307.802 65.6669C307.92 65.5556 308.061 65.5 308.224 65.5C308.388 65.5 308.527 65.5556 308.643 65.6669C308.762 65.7782 308.821 65.9119 308.821 66.0682C308.821 66.2244 308.762 66.3582 308.643 66.4695C308.527 66.5807 308.388 66.6364 308.224 66.6364ZM312.231 73.1136C311.776 73.1136 311.375 72.9988 311.027 72.7692C310.679 72.5372 310.407 72.2105 310.21 71.7891C310.014 71.3653 309.916 70.8646 309.916 70.2869C309.916 69.714 310.014 69.2169 310.21 68.7955C310.407 68.3741 310.68 68.0485 311.031 67.8189C311.381 67.5893 311.786 67.4744 312.245 67.4744C312.6 67.4744 312.881 67.5336 313.087 67.652C313.295 67.768 313.454 67.9006 313.563 68.0497C313.674 68.1965 313.76 68.3172 313.822 68.4119H313.893V65.7273H314.731V73H313.921V72.1619H313.822C313.76 72.2614 313.673 72.3868 313.559 72.5384C313.445 72.6875 313.283 72.8213 313.073 72.9396C312.862 73.0556 312.581 73.1136 312.231 73.1136ZM312.345 72.3608C312.681 72.3608 312.965 72.2732 313.197 72.098C313.429 71.9205 313.605 71.6754 313.726 71.3629C313.847 71.0481 313.907 70.6847 313.907 70.2727C313.907 69.8655 313.848 69.5092 313.73 69.2038C313.611 68.8961 313.436 68.657 313.204 68.4865C312.972 68.3137 312.686 68.2273 312.345 68.2273C311.99 68.2273 311.694 68.3184 311.457 68.5007C311.222 68.6806 311.046 68.9257 310.928 69.2358C310.812 69.5436 310.754 69.8892 310.754 70.2727C310.754 70.661 310.813 71.0137 310.931 71.331C311.052 71.6458 311.23 71.8968 311.464 72.0838C311.701 72.2685 311.994 72.3608 312.345 72.3608Z" fill="#E5E9F5"/>
<circle cx="114" cy="69" r="4" fill="#FD8265"/>
<circle cx="138" cy="69" r="4" fill="#98D8B5"/>
<circle cx="126" cy="69" r="4" fill="#FBCE2E"/>
<g filter="url(#filter0_d_1498_490)">
<rect x="63" y="107" width="460" height="193" rx="15" fill="white"/>
</g>
<path d="M88.9482 144V133.091H93.2521C94.0795 133.091 94.7844 133.249 95.3668 133.565C95.9492 133.877 96.3931 134.312 96.6985 134.87C97.0075 135.424 97.1619 136.063 97.1619 136.788C97.1619 137.512 97.0057 138.151 96.6932 138.705C96.3807 139.259 95.9279 139.691 95.3349 140C94.7454 140.309 94.0316 140.463 93.1935 140.463H90.4503V138.615H92.8207C93.2646 138.615 93.6303 138.538 93.918 138.386C94.2092 138.229 94.4258 138.015 94.5678 137.741C94.7134 137.464 94.7862 137.146 94.7862 136.788C94.7862 136.425 94.7134 136.109 94.5678 135.839C94.4258 135.566 94.2092 135.355 93.918 135.206C93.6268 135.053 93.2575 134.977 92.81 134.977H91.2546V144H88.9482ZM102.214 144.16C101.373 144.16 100.648 143.989 100.041 143.648C99.4373 143.304 98.9721 142.817 98.6454 142.189C98.3187 141.557 98.1554 140.809 98.1554 139.946C98.1554 139.105 98.3187 138.366 98.6454 137.73C98.9721 137.095 99.432 136.599 100.025 136.244C100.622 135.889 101.321 135.712 102.124 135.712C102.664 135.712 103.166 135.799 103.631 135.973C104.1 136.143 104.508 136.401 104.856 136.745C105.208 137.089 105.481 137.523 105.677 138.045C105.872 138.563 105.97 139.17 105.97 139.866V140.49H99.0609V139.083H103.834C103.834 138.757 103.763 138.467 103.621 138.215C103.479 137.963 103.281 137.766 103.029 137.624C102.781 137.478 102.491 137.406 102.161 137.406C101.817 137.406 101.511 137.485 101.245 137.645C100.982 137.801 100.776 138.013 100.627 138.279C100.478 138.542 100.401 138.835 100.398 139.158V140.495C100.398 140.9 100.472 141.25 100.622 141.544C100.774 141.839 100.989 142.066 101.266 142.226C101.543 142.386 101.872 142.466 102.252 142.466C102.504 142.466 102.735 142.43 102.944 142.359C103.154 142.288 103.333 142.182 103.482 142.04C103.631 141.898 103.745 141.724 103.823 141.518L105.922 141.656C105.815 142.161 105.597 142.601 105.267 142.977C104.94 143.35 104.517 143.641 103.999 143.851C103.484 144.057 102.889 144.16 102.214 144.16ZM107.45 144V135.818H109.65V137.246H109.736C109.885 136.738 110.135 136.354 110.487 136.095C110.838 135.832 111.243 135.701 111.701 135.701C111.815 135.701 111.937 135.708 112.069 135.722C112.2 135.737 112.316 135.756 112.415 135.781V137.794C112.308 137.762 112.161 137.734 111.973 137.709C111.785 137.684 111.612 137.672 111.456 137.672C111.122 137.672 110.824 137.745 110.561 137.89C110.302 138.032 110.096 138.231 109.943 138.487C109.794 138.743 109.72 139.037 109.72 139.371V144H107.45ZM120.396 138.151L118.318 138.279C118.283 138.102 118.206 137.942 118.089 137.8C117.972 137.654 117.818 137.539 117.626 137.453C117.438 137.365 117.212 137.32 116.949 137.32C116.598 137.32 116.301 137.395 116.06 137.544C115.818 137.69 115.698 137.885 115.698 138.13C115.698 138.325 115.776 138.49 115.932 138.625C116.088 138.76 116.356 138.869 116.736 138.95L118.217 139.249C119.013 139.412 119.606 139.675 119.996 140.037C120.387 140.399 120.582 140.875 120.582 141.464C120.582 142.001 120.424 142.471 120.108 142.876C119.796 143.281 119.366 143.597 118.819 143.824C118.276 144.048 117.649 144.16 116.939 144.16C115.856 144.16 114.993 143.934 114.35 143.483C113.711 143.029 113.336 142.411 113.226 141.63L115.458 141.512C115.525 141.843 115.689 142.095 115.948 142.269C116.207 142.439 116.539 142.525 116.944 142.525C117.342 142.525 117.661 142.448 117.903 142.295C118.148 142.139 118.272 141.939 118.276 141.694C118.272 141.488 118.185 141.319 118.015 141.188C117.844 141.053 117.581 140.95 117.226 140.879L115.809 140.596C115.01 140.436 114.416 140.159 114.025 139.765C113.638 139.371 113.444 138.869 113.444 138.258C113.444 137.732 113.586 137.279 113.87 136.9C114.158 136.52 114.561 136.227 115.08 136.021C115.602 135.815 116.212 135.712 116.912 135.712C117.945 135.712 118.759 135.93 119.352 136.367C119.948 136.804 120.296 137.398 120.396 138.151ZM125.708 144.16C124.88 144.16 124.165 143.984 123.561 143.632C122.961 143.277 122.498 142.784 122.171 142.152C121.844 141.516 121.681 140.779 121.681 139.941C121.681 139.096 121.844 138.357 122.171 137.725C122.498 137.089 122.961 136.596 123.561 136.244C124.165 135.889 124.88 135.712 125.708 135.712C126.535 135.712 127.249 135.889 127.849 136.244C128.453 136.596 128.918 137.089 129.245 137.725C129.571 138.357 129.735 139.096 129.735 139.941C129.735 140.779 129.571 141.516 129.245 142.152C128.918 142.784 128.453 143.277 127.849 143.632C127.249 143.984 126.535 144.16 125.708 144.16ZM125.718 142.402C126.095 142.402 126.409 142.295 126.661 142.082C126.913 141.866 127.103 141.571 127.231 141.198C127.363 140.825 127.428 140.401 127.428 139.925C127.428 139.449 127.363 139.025 127.231 138.652C127.103 138.279 126.913 137.984 126.661 137.768C126.409 137.551 126.095 137.443 125.718 137.443C125.338 137.443 125.019 137.551 124.76 137.768C124.504 137.984 124.31 138.279 124.179 138.652C124.051 139.025 123.987 139.449 123.987 139.925C123.987 140.401 124.051 140.825 124.179 141.198C124.31 141.571 124.504 141.866 124.76 142.082C125.019 142.295 125.338 142.402 125.718 142.402ZM133.479 139.27V144H131.21V135.818H133.373V137.262H133.469C133.65 136.786 133.953 136.409 134.38 136.132C134.806 135.852 135.322 135.712 135.93 135.712C136.498 135.712 136.993 135.836 137.416 136.085C137.838 136.333 138.167 136.688 138.401 137.15C138.636 137.608 138.753 138.155 138.753 138.79V144H136.484V139.195C136.487 138.695 136.359 138.304 136.1 138.023C135.841 137.739 135.484 137.597 135.029 137.597C134.724 137.597 134.454 137.663 134.22 137.794C133.989 137.926 133.808 138.118 133.676 138.37C133.549 138.618 133.483 138.918 133.479 139.27ZM142.874 144.154C142.352 144.154 141.887 144.064 141.479 143.883C141.07 143.698 140.747 143.426 140.509 143.068C140.275 142.706 140.158 142.255 140.158 141.715C140.158 141.26 140.241 140.879 140.408 140.57C140.575 140.261 140.802 140.012 141.09 139.824C141.378 139.636 141.704 139.494 142.07 139.398C142.439 139.302 142.826 139.234 143.231 139.195C143.707 139.146 144.091 139.099 144.382 139.057C144.673 139.011 144.884 138.943 145.016 138.854C145.147 138.766 145.213 138.634 145.213 138.46V138.428C145.213 138.091 145.106 137.83 144.893 137.645C144.684 137.461 144.385 137.368 143.998 137.368C143.59 137.368 143.265 137.459 143.024 137.64C142.782 137.817 142.622 138.041 142.544 138.311L140.445 138.141C140.552 137.643 140.761 137.214 141.074 136.852C141.386 136.486 141.79 136.205 142.283 136.01C142.78 135.811 143.356 135.712 144.009 135.712C144.464 135.712 144.899 135.765 145.314 135.871C145.733 135.978 146.104 136.143 146.427 136.367C146.754 136.591 147.011 136.878 147.2 137.23C147.388 137.578 147.482 137.995 147.482 138.482V144H145.33V142.865H145.266C145.135 143.121 144.959 143.347 144.739 143.542C144.519 143.734 144.254 143.885 143.945 143.995C143.636 144.101 143.279 144.154 142.874 144.154ZM143.524 142.588C143.858 142.588 144.153 142.523 144.408 142.391C144.664 142.256 144.865 142.075 145.01 141.848C145.156 141.621 145.229 141.363 145.229 141.076V140.207C145.158 140.254 145.06 140.296 144.936 140.335C144.815 140.371 144.678 140.404 144.526 140.436C144.373 140.465 144.22 140.491 144.068 140.516C143.915 140.538 143.776 140.557 143.652 140.575C143.386 140.614 143.153 140.676 142.954 140.761C142.755 140.847 142.601 140.962 142.491 141.108C142.381 141.25 142.326 141.427 142.326 141.64C142.326 141.949 142.438 142.185 142.661 142.349C142.889 142.509 143.176 142.588 143.524 142.588ZM151.512 133.091V144H149.242V133.091H151.512ZM153.329 144V135.818H155.599V144H153.329ZM154.469 134.763C154.132 134.763 153.843 134.652 153.601 134.428C153.363 134.201 153.244 133.929 153.244 133.613C153.244 133.3 153.363 133.032 153.601 132.809C153.843 132.581 154.132 132.468 154.469 132.468C154.807 132.468 155.094 132.581 155.332 132.809C155.574 133.032 155.694 133.3 155.694 133.613C155.694 133.929 155.574 134.201 155.332 134.428C155.094 134.652 154.807 134.763 154.469 134.763ZM164.224 138.151L162.146 138.279C162.111 138.102 162.035 137.942 161.917 137.8C161.8 137.654 161.646 137.539 161.454 137.453C161.266 137.365 161.04 137.32 160.777 137.32C160.426 137.32 160.129 137.395 159.888 137.544C159.646 137.69 159.526 137.885 159.526 138.13C159.526 138.325 159.604 138.49 159.76 138.625C159.916 138.76 160.184 138.869 160.564 138.95L162.045 139.249C162.841 139.412 163.434 139.675 163.824 140.037C164.215 140.399 164.41 140.875 164.41 141.464C164.41 142.001 164.252 142.471 163.936 142.876C163.624 143.281 163.194 143.597 162.647 143.824C162.104 144.048 161.477 144.16 160.767 144.16C159.684 144.16 158.821 143.934 158.178 143.483C157.539 143.029 157.164 142.411 157.054 141.63L159.286 141.512C159.353 141.843 159.517 142.095 159.776 142.269C160.035 142.439 160.367 142.525 160.772 142.525C161.17 142.525 161.489 142.448 161.731 142.295C161.976 142.139 162.1 141.939 162.104 141.694C162.1 141.488 162.013 141.319 161.843 141.188C161.672 141.053 161.41 140.95 161.054 140.879L159.638 140.596C158.839 140.436 158.244 140.159 157.853 139.765C157.466 139.371 157.272 138.869 157.272 138.258C157.272 137.732 157.415 137.279 157.699 136.9C157.986 136.52 158.389 136.227 158.908 136.021C159.43 135.815 160.041 135.712 160.74 135.712C161.774 135.712 162.587 135.93 163.18 136.367C163.776 136.804 164.124 137.398 164.224 138.151ZM168.172 144.154C167.65 144.154 167.185 144.064 166.777 143.883C166.368 143.698 166.045 143.426 165.807 143.068C165.573 142.706 165.456 142.255 165.456 141.715C165.456 141.26 165.539 140.879 165.706 140.57C165.873 140.261 166.1 140.012 166.388 139.824C166.675 139.636 167.002 139.494 167.368 139.398C167.737 139.302 168.124 139.234 168.529 139.195C169.005 139.146 169.388 139.099 169.68 139.057C169.971 139.011 170.182 138.943 170.314 138.854C170.445 138.766 170.511 138.634 170.511 138.46V138.428C170.511 138.091 170.404 137.83 170.191 137.645C169.982 137.461 169.683 137.368 169.296 137.368C168.888 137.368 168.563 137.459 168.321 137.64C168.08 137.817 167.92 138.041 167.842 138.311L165.743 138.141C165.85 137.643 166.059 137.214 166.372 136.852C166.684 136.486 167.087 136.205 167.581 136.01C168.078 135.811 168.653 135.712 169.307 135.712C169.761 135.712 170.196 135.765 170.612 135.871C171.031 135.978 171.402 136.143 171.725 136.367C172.052 136.591 172.309 136.878 172.498 137.23C172.686 137.578 172.78 137.995 172.78 138.482V144H170.628V142.865H170.564C170.433 143.121 170.257 143.347 170.037 143.542C169.816 143.734 169.552 143.885 169.243 143.995C168.934 144.101 168.577 144.154 168.172 144.154ZM168.822 142.588C169.156 142.588 169.451 142.523 169.706 142.391C169.962 142.256 170.163 142.075 170.308 141.848C170.454 141.621 170.527 141.363 170.527 141.076V140.207C170.456 140.254 170.358 140.296 170.234 140.335C170.113 140.371 169.976 140.404 169.824 140.436C169.671 140.465 169.518 140.491 169.365 140.516C169.213 140.538 169.074 140.557 168.95 140.575C168.684 140.614 168.451 140.676 168.252 140.761C168.053 140.847 167.899 140.962 167.789 141.108C167.679 141.25 167.624 141.427 167.624 141.64C167.624 141.949 167.735 142.185 167.959 142.349C168.186 142.509 168.474 142.588 168.822 142.588ZM181.348 138.151L179.27 138.279C179.235 138.102 179.159 137.942 179.041 137.8C178.924 137.654 178.77 137.539 178.578 137.453C178.39 137.365 178.164 137.32 177.901 137.32C177.55 137.32 177.253 137.395 177.012 137.544C176.77 137.69 176.65 137.885 176.65 138.13C176.65 138.325 176.728 138.49 176.884 138.625C177.04 138.76 177.308 138.869 177.688 138.95L179.169 139.249C179.965 139.412 180.558 139.675 180.948 140.037C181.339 140.399 181.534 140.875 181.534 141.464C181.534 142.001 181.376 142.471 181.06 142.876C180.748 143.281 180.318 143.597 179.771 143.824C179.228 144.048 178.601 144.16 177.891 144.16C176.808 144.16 175.945 143.934 175.302 143.483C174.663 143.029 174.288 142.411 174.178 141.63L176.41 141.512C176.477 141.843 176.641 142.095 176.9 142.269C177.159 142.439 177.491 142.525 177.896 142.525C178.294 142.525 178.613 142.448 178.855 142.295C179.1 142.139 179.224 141.939 179.228 141.694C179.224 141.488 179.137 141.319 178.967 141.188C178.796 141.053 178.534 140.95 178.178 140.879L176.762 140.596C175.963 140.436 175.368 140.159 174.977 139.765C174.59 139.371 174.396 138.869 174.396 138.258C174.396 137.732 174.539 137.279 174.823 136.9C175.11 136.52 175.513 136.227 176.032 136.021C176.554 135.815 177.165 135.712 177.864 135.712C178.898 135.712 179.711 135.93 180.304 136.367C180.9 136.804 181.248 137.398 181.348 138.151ZM182.963 144V135.818H185.232V144H182.963ZM184.103 134.763C183.766 134.763 183.476 134.652 183.235 134.428C182.997 134.201 182.878 133.929 182.878 133.613C182.878 133.3 182.997 133.032 183.235 132.809C183.476 132.581 183.766 132.468 184.103 132.468C184.44 132.468 184.728 132.581 184.966 132.809C185.207 133.032 185.328 133.3 185.328 133.613C185.328 133.929 185.207 134.201 184.966 134.428C184.728 134.652 184.44 134.763 184.103 134.763Z" fill="#6F7E94"/>
<rect x="404" y="160" width="95" height="110" rx="9" fill="#F7F7F7"/>
<rect x="298" y="160" width="95" height="110" rx="9" fill="#F7F7F7"/>
<rect x="192" y="160" width="95" height="110" rx="9" fill="#F7F7F7"/>
<rect x="86" y="160" width="95" height="110" rx="9" fill="#F7F7F7"/>
<path d="M248.75 224.583H258.333V228.417H252.583V234.167H248.75V224.583ZM229.583 205.417H220V201.583H225.75V195.833H229.583V205.417ZM251.364 221.776L248.654 219.066L251.364 216.355C255.107 212.613 255.107 206.545 251.364 202.802C247.622 199.06 241.554 199.06 237.811 202.802L235.101 205.513L232.39 202.802L235.101 200.092C240.34 194.852 248.835 194.852 254.075 200.092C259.314 205.331 259.314 213.826 254.075 219.066L251.364 221.776ZM245.943 227.198L243.232 229.908C237.993 235.148 229.498 235.148 224.259 229.908C219.019 224.669 219.019 216.174 224.259 210.934L226.969 208.224L229.68 210.934L226.969 213.645C223.227 217.387 223.227 223.455 226.969 227.198C230.712 230.94 236.779 230.94 240.522 227.198L243.232 224.487L245.943 227.198ZM244.588 206.868L247.298 209.579L233.746 223.132L231.035 220.421L244.588 206.868Z" fill="#E5E5E5"/>
<path d="M434 201.574C434 199.462 435.711 197.75 437.824 197.75H464.676C466.788 197.75 468.5 199.461 468.5 201.574V228.426C468.5 230.538 466.789 232.25 464.676 232.25H437.824C435.712 232.25 434 230.539 434 228.426V201.574ZM437.833 201.583V228.417H464.667V201.583H437.833ZM443.53 226.847C442.344 226.333 441.22 225.703 440.173 224.971C442.563 221.278 446.719 218.833 451.446 218.833C456.045 218.833 460.103 221.147 462.52 224.674C461.492 225.434 460.386 226.093 459.215 226.638C457.474 224.232 454.642 222.667 451.446 222.667C448.157 222.667 445.256 224.323 443.53 226.847ZM451.25 216.917C447.545 216.917 444.542 213.913 444.542 210.208C444.542 206.503 447.545 203.5 451.25 203.5C454.955 203.5 457.958 206.503 457.958 210.208C457.958 213.913 454.955 216.917 451.25 216.917ZM451.25 213.083C452.838 213.083 454.125 211.796 454.125 210.208C454.125 208.621 452.838 207.333 451.25 207.333C449.662 207.333 448.375 208.621 448.375 210.208C448.375 211.796 449.662 213.083 451.25 213.083Z" fill="#E5E5E5"/>
<path d="M325 195.833V201.583H328.833V199.667H332.667V209.25H329.792V213.083H339.375V209.25H336.5V199.667H340.333V201.583H344.167V195.833H325ZM363.333 197.75H349.917V201.583H361.417V228.417H330.75V218.833H326.917V230.333C326.917 231.392 327.775 232.25 328.833 232.25H363.333C364.392 232.25 365.25 231.392 365.25 230.333V199.667C365.25 198.608 364.392 197.75 363.333 197.75Z" fill="#E5E5E5"/>
<path d="M133.167 195.833C143.751 195.833 152.333 203.457 152.333 212.87C152.333 218.748 147.563 223.518 141.685 223.518H137.916C136.148 223.518 134.721 224.945 134.721 226.713C134.721 227.522 135.041 228.268 135.53 228.821C136.042 229.396 136.361 230.142 136.361 230.972C136.361 232.74 134.892 234.167 133.167 234.167C122.582 234.167 114 225.584 114 215C114 204.416 122.582 195.833 133.167 195.833ZM130.888 226.713C130.888 222.828 134.031 219.685 137.916 219.685H141.685C145.446 219.685 148.5 216.631 148.5 212.87C148.5 205.683 141.73 199.667 133.167 199.667C124.7 199.667 117.833 206.533 117.833 215C117.833 223.031 124.01 229.621 131.871 230.279C131.24 229.216 130.888 227.988 130.888 226.713ZM124.542 215C122.954 215 121.667 213.713 121.667 212.125C121.667 210.537 122.954 209.25 124.542 209.25C126.129 209.25 127.417 210.537 127.417 212.125C127.417 213.713 126.129 215 124.542 215ZM141.792 215C140.204 215 138.917 213.713 138.917 212.125C138.917 210.537 140.204 209.25 141.792 209.25C143.379 209.25 144.667 210.537 144.667 212.125C144.667 213.713 143.379 215 141.792 215ZM133.167 209.25C131.579 209.25 130.292 207.963 130.292 206.375C130.292 204.787 131.579 203.5 133.167 203.5C134.754 203.5 136.042 204.787 136.042 206.375C136.042 207.963 134.754 209.25 133.167 209.25Z" fill="#E5E5E5"/>
<defs>
<filter id="filter0_d_1498_490" x="42.4" y="86.4" width="501.2" height="234.2" filterUnits="userSpaceOnUse" color-interpolation-filters="sRGB">
<feFlood flood-opacity="0" result="BackgroundImageFix"/>
<feColorMatrix in="SourceAlpha" type="matrix" values="0 0 0 0 0 0 0 0 0 0 0 0 0 0 0 0 0 0 127 0" result="hardAlpha"/>
<feMorphology radius="9" operator="erode" in="SourceAlpha" result="effect1_dropShadow_1498_490"/>
<feOffset/>
<feGaussianBlur stdDeviation="14.8"/>
<feComposite in2="hardAlpha" operator="out"/>
<feColorMatrix type="matrix" values="0 0 0 0 0 0 0 0 0 0 0 0 0 0 0 0 0 0 0.25 0"/>
<feBlend mode="normal" in2="BackgroundImageFix" result="effect1_dropShadow_1498_490"/>
<feBlend mode="normal" in="SourceGraphic" in2="effect1_dropShadow_1498_490" result="shape"/>
</filter>
</defs>
</svg>
